<?xml version="1.0" encoding="utf-8"?>
<!-- Generator: Adobe Illustrator 24.1.0, SVG Export Plug-In . SVG Version: 6.00 Build 0)  -->
<svg version="1.1" id="Layer_1" xmlns="http://www.w3.org/2000/svg" xmlns:xlink="http://www.w3.org/1999/xlink" x="0px" y="0px"
	 viewBox="0 0 1984.3 283.5" style="enable-background:new 0 0 1984.3 283.5;" xml:space="preserve">
<style type="text/css">
	.st0{fill:#0E4284;}
	.st1{fill:#FBFBFC;}
	.st2{fill:#0F4284;}
</style>
<g>
	<g>
		<path class="st0" d="M1123,191.6c-11.3,0-22.6,0-33.9,0c0-2.8,0-5.5,0-8.4c-3.2-0.2-5.8-0.4-8.8-0.5c0-13.8,0-27.5,0-41.2
			c-2.9,0-5.5,0-8.2,0c0,16.9,0,33.5,0,50.1c-11.3,0-22.6,0-33.9,0c0-2.7,0-5.5,0-8.5c-3-0.1-5.6-0.3-8.6-0.4c0-16.9,0-33.2,0-49.7
			c-3,0-5.6,0-8.4,0c0,19.8,0,39.2,0,58.6c-11.3,0-22.6,0-33.9,0c0-2.7,0-5.5,0-8.4c-2.8-0.2-5.4-0.3-7.9-0.5
			c-0.1-2.9-0.3-5.3-0.4-7.6c-11.4,0-22.4,0-33.6,0c0,5.7,0,11.1,0,16.5c-22.6,0-45.2,0-67.9,0c0-2.7,0-5.5,0-8.4c-2.8,0-5.3,0-8,0
			c0,2.9,0,5.7,0,8.4c-11.3,0-22.6,0-33.9,0c0-2.7,0-5.4,0-8c-3.3,0-5.7,0-8.4,0c-0.2,2.8-0.4,5.4-0.6,8c-19.6,0-39.3,0-58.9,0
			c0-2.7,0-5.5,0-8.5c-3-0.1-5.5-0.3-8-0.4c-0.2-3-0.3-5.4-0.4-7.8c-3-0.1-5.6-0.3-8-0.4c0-19.7,0-38.9,0-58.2
			c2.9-0.1,5.5-0.3,8.5-0.4c0-3,0-5.5,0-8.2c19.8,0,39.1,0,59.1,0c0,2.9,0,5.6,0,8.2c5.8,0,11.1,0,16.6,0c0.1-2.8,0.2-5.4,0.4-8
			c19.7,0,39.2,0,59.1,0c0,2.9,0,5.5,0,8.1c2.7,0,5,0,7.4,0c0.2-2.9,0.3-5.6,0.4-8.1c22.9,0,45.2,0,67.7,0c0.2,2.9,0.3,5.4,0.5,8
			c2.9,0,5.5,0,8.5,0c0-2.9,0-5.4,0-8.2c33.8,0,67.2,0,100.8,0c0.2,2.6,0.4,5.2,0.6,7.8c2.9,0,5.5,0,8.4,0c0-2.7,0-5.1,0-7.6
			c19.9,0,39.4,0,59.2,0c0,2.9,0,5.5,0,8.1c2.7,0,5,0,7.4,0c0.2-2.9,0.3-5.6,0.5-8.2c11.5,0,22.6,0,34,0c0,2.9,0,5.4,0,8.2
			c2.9,0.1,5.5,0.2,8.5,0.4c0,13.9,0,27.5,0,41.6c8.7,0,16.9,0,25.5,0c0,2.9,0,5.4,0,8.3c3.1-0.2,5.9-0.3,8.6-0.5
			c0,8.6,0,17.1,0,25.7c-33.9,0-67.9,0-101.8,0c0-2.7,0-5.4,0-8.4c-2.9,0-5.4,0-8.4,0C1122.7,186.2,1122.9,188.9,1123,191.6z
			 M852.5,174.6c0-5.6,0-10.9,0-16.3c8.6,0,16.6,0,25.2,0c0,5.6,0,10.9,0,16.3c5.9,0,11.3,0,16.5,0c0-16.9,0-33.4,0-50.2
			c-2.8,0-5.2,0-7.8,0c-0.2-2.8-0.4-5.4-0.5-7.9c-14.3,0-28,0-41.8,0c-0.2,2.8-0.3,5.2-0.4,7.8c-2.7,0.2-5.3,0.3-7.7,0.5
			c0,16.9,0,33.5,0,50C841.5,174.6,846.8,174.6,852.5,174.6z M1106.1,174.6c0-5.8,0-11,0-16.4c8.4,0,16.5,0,25,0
			c0,5.5,0,10.9,0,16.3c5.9,0,11.2,0,16.6,0c0-16.8,0-33.4,0-50.2c-2.8,0-5.2,0-7.8,0c-0.2-2.8-0.4-5.4-0.7-8c-14.1,0-27.9,0-41.7,0
			c-0.2,2.8-0.4,5.3-0.6,7.9c-2.8,0.1-5.2,0.3-7.7,0.4c0,16.9,0,33.4,0,50C1094.9,174.6,1100.1,174.6,1106.1,174.6z M911.8,116.2
			c0,19.7,0,39,0,58.3c5.7,0,11.1,0,16.9,0c0-5.7,0-11,0-16.7c11.4,0,22.3,0,33.6,0c0-2.9,0-5.5,0-8.1c2.9-0.2,5.4-0.3,7.9-0.4
			c0-8.4,0-16.5,0-25c-2.8,0-5.2,0-8.2,0c0-2.9,0-5.4,0-8.1C945.1,116.2,928.7,116.2,911.8,116.2z M809.8,116.3c-14,0-27.7,0-41.7,0
			c-0.2,2.7-0.3,5.3-0.5,8.1c-2.7,0-5.2,0-7.7,0c0,14.1,0,27.8,0,41.6c2.8,0.2,5.2,0.3,7.8,0.5c0.1,2.8,0.3,5.4,0.4,8
			c14.1,0,27.9,0,41.8,0c0.2-2.8,0.3-5.3,0.5-8c3-0.2,5.4-0.3,8-0.5c0-2.7,0-5.2,0-7.8c-5.7,0-11.1,0-16.8,0c0,2.7,0,5.1,0,7.8
			c-8.4,0-16.5,0-24.8,0c0-13.9,0-27.6,0-41.5c8.4,0,16.5,0,24.7,0c0.1,2.7,0.3,5.3,0.4,7.7c5.8,0,11.2,0,16.5,0c0-2.8,0-5.2,0-7.8
			c-2.8-0.1-5.4-0.3-8.1-0.4C810.1,121.4,809.9,118.9,809.8,116.3z M1215.3,166.2c-11.2,0-22.2,0-33.6,0c0-17,0-33.4,0-49.9
			c-5.8,0-11.1,0-16.6,0c0,19.6,0,38.9,0,58.1c16.9,0,33.6,0,50.2,0C1215.3,171.7,1215.3,169.3,1215.3,166.2z M1038.1,174.4
			c6,0,11.4,0,17.2,0c0-16.9,0-33.4,0-50.2c5.8,0,11.1,0,16.5,0c0-2.7,0-5.1,0-7.9c-16.8,0-33.5,0-50.2,0c0,2.8,0,5.3,0,8.2
			c5.6,0,10.9,0,16.4,0C1038.1,141.3,1038.1,157.7,1038.1,174.4z M987.9,116.3c0,19.6,0,38.9,0,58.3c5.6,0,10.9,0,16.3,0
			c0-19.6,0-38.9,0-58.3C998.5,116.3,993.3,116.3,987.9,116.3z"/>
		<path class="st1" d="M852.5,174.6c-5.7,0-11,0-16.6,0c0-16.5,0-33,0-50c2.5-0.1,5-0.3,7.7-0.5c0.1-2.6,0.3-5,0.4-7.8
			c13.9,0,27.6,0,41.8,0c0.2,2.5,0.3,5,0.5,7.9c2.6,0,5,0,7.8,0c0,16.8,0,33.4,0,50.2c-5.3,0-10.7,0-16.5,0c0-5.4,0-10.7,0-16.3
			c-8.6,0-16.6,0-25.2,0C852.5,163.7,852.5,169,852.5,174.6z M877.4,124.6c-8.6,0-16.6,0-24.6,0c0,8.4,0,16.5,0,24.5
			c8.4,0,16.4,0,24.6,0C877.4,140.9,877.4,132.9,877.4,124.6z"/>
		<path class="st1" d="M1106.1,174.6c-5.9,0-11.2,0-16.8,0c0-16.6,0-33.1,0-50c2.4-0.1,4.8-0.2,7.7-0.4c0.2-2.5,0.4-5.1,0.6-7.9
			c13.8,0,27.6,0,41.7,0c0.2,2.6,0.4,5.2,0.7,8c2.6,0,5.1,0,7.8,0c0,16.8,0,33.4,0,50.2c-5.4,0-10.7,0-16.6,0c0-5.4,0-10.8,0-16.3
			c-8.5,0-16.6,0-25,0C1106.1,163.6,1106.1,168.8,1106.1,174.6z M1130.8,124.6c-8.4,0-16.5,0-24.6,0c0,8.3,0,16.5,0,24.6
			c8.3,0,16.4,0,24.6,0C1130.8,141,1130.8,133,1130.8,124.6z"/>
		<path class="st1" d="M911.8,116.2c16.9,0,33.3,0,50.3,0c0,2.7,0,5.2,0,8.1c3,0,5.4,0,8.2,0c0,8.5,0,16.6,0,25
			c-2.5,0.1-5,0.3-7.9,0.4c0,2.6,0,5.2,0,8.1c-11.4,0-22.3,0-33.6,0c0,5.7,0,11,0,16.7c-5.8,0-11.2,0-16.9,0
			C911.8,155.2,911.8,135.9,911.8,116.2z M928.7,149.2c8.4,0,16.5,0,24.7,0c0-8.4,0-16.5,0-24.6c-8.4,0-16.4,0-24.7,0
			C928.7,132.8,928.7,140.8,928.7,149.2z"/>
		<path class="st1" d="M809.8,116.3c0.2,2.6,0.3,5.1,0.5,7.8c2.7,0.1,5.3,0.3,8.1,0.4c0,2.5,0,4.9,0,7.8c-5.3,0-10.7,0-16.5,0
			c-0.1-2.4-0.3-4.9-0.4-7.7c-8.3,0-16.3,0-24.7,0c0,13.8,0,27.5,0,41.5c8.3,0,16.4,0,24.8,0c0-2.6,0-5.1,0-7.8c5.7,0,11.1,0,16.8,0
			c0,2.6,0,5.1,0,7.8c-2.6,0.2-5.1,0.3-8,0.5c-0.2,2.7-0.3,5.2-0.5,8c-13.9,0-27.6,0-41.8,0c-0.1-2.6-0.2-5.1-0.4-8
			c-2.6-0.2-5-0.3-7.8-0.5c0-13.8,0-27.6,0-41.6c2.5,0,4.9,0,7.7,0c0.2-2.9,0.4-5.4,0.5-8.1C782.1,116.3,795.7,116.3,809.8,116.3z"
			/>
		<path class="st1" d="M1215.3,166.2c0,3,0,5.4,0,8.2c-16.6,0-33.3,0-50.2,0c0-19.3,0-38.6,0-58.1c5.5,0,10.8,0,16.6,0
			c0,16.6,0,32.9,0,49.9C1193.2,166.2,1204.2,166.2,1215.3,166.2z"/>
		<path class="st1" d="M1038.1,174.4c0-16.8,0-33.2,0-49.9c-5.5,0-10.8,0-16.4,0c0-2.8,0-5.3,0-8.2c16.7,0,33.3,0,50.2,0
			c0,2.8,0,5.2,0,7.9c-5.4,0-10.7,0-16.5,0c0,16.8,0,33.3,0,50.2C1049.5,174.4,1044.1,174.4,1038.1,174.4z"/>
		<path class="st1" d="M987.9,116.3c5.4,0,10.7,0,16.3,0c0,19.4,0,38.7,0,58.3c-5.4,0-10.6,0-16.3,0
			C987.9,155.2,987.9,135.9,987.9,116.3z"/>
		<path class="st0" d="M877.4,124.6c0,8.2,0,16.2,0,24.5c-8.2,0-16.2,0-24.6,0c0-8,0-16.1,0-24.5
			C860.8,124.6,868.9,124.6,877.4,124.6z"/>
		<path class="st0" d="M1130.8,124.6c0,8.4,0,16.4,0,24.6c-8.2,0-16.3,0-24.6,0c0-8.2,0-16.3,0-24.6
			C1114.4,124.6,1122.4,124.6,1130.8,124.6z"/>
		<path class="st0" d="M928.7,149.2c0-8.4,0-16.4,0-24.6c8.3,0,16.3,0,24.7,0c0,8.2,0,16.2,0,24.6
			C945.1,149.2,937.1,149.2,928.7,149.2z"/>
	</g>
</g>
<g>
	<g>
		<path class="st2" d="M400,191.6c-11.6,0-23.3,0-34.9,0c0.2-2.7,0.4-5.4,0.5-8.4c-3.2-0.2-5.7-0.4-8.3-0.6c0-25.1,0-49.9,0-74.9
			c36.6,0,72.9,0,109.5,0c0,2.9,0,5.6,0,8.3c2.9,0.1,5.5,0.2,8.5,0.4c0,14,0,27.6,0,41.2c8.7,0,16.9,0,25.5,0c0-13.9,0-27.5,0-41.3
			c2.9-0.1,5.5-0.3,8.5-0.4c0-3.1,0-5.6,0-8.1c19.9,0,39.3,0,59.1,0c0,2.9,0,5.4,0,7.9c5.8,0,11.2,0,16.6,0c0.2-3,0.3-5.5,0.5-7.9
			c19.8,0,39.2,0,58.9,0c0,2.9,0,5.5,0,8.1c2.8,0,5.2,0,7.9,0c0.2-2.8,0.3-5.3,0.5-8.1c22.6,0,44.9,0,67.5,0c0,2.9,0,5.4,0,8.5
			c2.8,0,5.4,0,8.2,0c0,8.4,0,16.4,0,24.9c-5.6,0-11,0-16.3,0c0,17.1,0,33.7,0,50.3c-11.3,0-22.6,0-33.9,0c0-2.8,0-5.5,0-8.4
			c-3.2-0.2-5.8-0.4-8.8-0.6c0-16.7,0-33.1,0-49.6c-3,0-5.5,0-8.1,0c0,19.7,0,39.1,0,58.5c-11.3,0-22.6,0-33.9,0c0-2.7,0-5.5,0-8.4
			c-3,0-5.6,0-8.8,0c0.3,3,0.6,5.7,0.8,8.4c-11.3,0-22.6,0-33.9,0c-0.2-2.6-0.3-5.2-0.5-8c-2.8,0-5.4,0-8.5,0c0,2.8,0,5.4,0,8
			c-19.6,0-39.2,0-58.8,0c0-2.7,0-5.4,0-8.4c-3.2,0-5.9,0-9,0c0,2.9,0,5.7,0,8.4c-22.6,0-45.2,0-67.8,0c0.3-2.8,0.6-5.5,0.9-8.4
			c-3.5-0.2-6.1-0.4-9-0.6c0-5.7,0-10.9,0-15.8c-11.4,0-22.4,0-34.1,0C399.2,175.4,399.6,183.5,400,191.6z M644,174.6
			c0-16.9,0-33.4,0-50.1c-2.9-0.1-5.4-0.3-8.1-0.4c-0.1-2.8-0.3-5.2-0.4-7.8c-14,0-27.7,0-41.7,0c-0.2,2.7-0.3,5.3-0.5,8.2
			c-2.7,0-5.1,0-7.6,0c0,16.9,0,33.4,0,50.1c5.5,0,10.8,0,16.5,0c0-5.6,0-10.9,0-16.2c8.7,0,16.9,0,25.4,0c0,5.6,0,10.8,0,16.2
			C633.1,174.6,638.3,174.6,644,174.6z M509.4,124.3c0,14.2,0,27.8,0,41.7c2.8,0.2,5.4,0.4,8.1,0.6c0.2,2.8,0.3,5.4,0.4,7.9
			c14.1,0,27.8,0,42,0c0-2.8,0-5.3,0-8c3.1-0.2,5.7-0.3,8.2-0.5c0-14.1,0-27.7,0-41.5c-2.8-0.1-5.4-0.3-8.5-0.4c0-2.8,0-5.4,0-7.7
			c-14.3,0-27.9,0-42,0c0,2.8,0,5.2,0,7.9C514.7,124.3,512.2,124.3,509.4,124.3z M365.9,116.3c0,19.6,0,38.9,0,58.2
			c5.6,0,10.9,0,16.7,0c0-8.4,0-16.5,0-25.1c11.4,0,22.3,0,33.3,0c0-2.9,0-5.3,0-8.2c-11.1,0-22,0-33.2,0c0-5.8,0-11.1,0-17
			c14.1,0,27.9,0,41.7,0c0-2.9,0-5.3,0-7.9C404.8,116.3,385.5,116.3,365.9,116.3z M661.4,124.5c5.8,0,11,0,16.8,0
			c0,16.9,0,33.4,0,50c5.7,0,11,0,16.8,0c0-16.8,0-33.3,0-50.3c5.9,0,11.3,0,16.5,0c0-2.9,0-5.3,0-7.9c-16.9,0-33.4,0-50.1,0
			C661.4,119,661.4,121.4,661.4,124.5z M442,116.3c0,19.6,0,38.9,0,58.2c16.8,0,33.3,0,49.8,0c0-2.8,0-5.4,0-8.4
			c-11.2,0-22.1,0-33.4,0c0-16.9,0-33.2,0-49.8C452.7,116.3,447.6,116.3,442,116.3z"/>
		<path class="st1" d="M644,174.6c-5.6,0-10.9,0-16.5,0c0-5.4,0-10.6,0-16.2c-8.5,0-16.6,0-25.4,0c0,5.3,0,10.6,0,16.2
			c-5.8,0-11,0-16.5,0c0-16.6,0-33.1,0-50.1c2.5,0,4.9,0,7.6,0c0.2-2.9,0.3-5.4,0.5-8.2c14,0,27.6,0,41.7,0c0.1,2.6,0.3,5,0.4,7.8
			c2.7,0.1,5.3,0.3,8.1,0.4C644,141.1,644,157.7,644,174.6z M602.5,124.5c0,8.6,0,16.7,0,24.6c8.4,0,16.5,0,24.4,0
			c0-8.5,0-16.5,0-24.6C618.6,124.5,610.7,124.5,602.5,124.5z"/>
		<path class="st1" d="M509.4,124.3c2.9,0,5.3,0,8.2,0c0-2.7,0-5.1,0-7.9c14.1,0,27.8,0,42,0c0,2.4,0,4.9,0,7.7
			c3.1,0.1,5.7,0.3,8.5,0.4c0,13.8,0,27.4,0,41.5c-2.5,0.1-5.1,0.3-8.2,0.5c0,2.7,0,5.2,0,8c-14.2,0-27.9,0-42,0
			c-0.1-2.6-0.3-5.1-0.4-7.9c-2.7-0.2-5.3-0.4-8.1-0.6C509.4,152.1,509.4,138.5,509.4,124.3z M551,166.1c0-14.2,0-27.9,0-41.5
			c-8.4,0-16.5,0-24.6,0c0,13.9,0,27.6,0,41.5C534.8,166.1,542.7,166.1,551,166.1z"/>
		<path class="st1" d="M365.9,116.3c19.5,0,38.9,0,58.5,0c0,2.6,0,5,0,7.9c-13.8,0-27.6,0-41.7,0c0,5.9,0,11.2,0,17
			c11.2,0,22.1,0,33.2,0c0,2.8,0,5.2,0,8.2c-11,0-21.9,0-33.3,0c0,8.7,0,16.8,0,25.1c-5.8,0-11.1,0-16.7,0
			C365.9,155.2,365.9,135.9,365.9,116.3z"/>
		<path class="st1" d="M661.4,124.5c0-3.1,0-5.5,0-8.2c16.7,0,33.2,0,50.1,0c0,2.6,0,5,0,7.9c-5.3,0-10.6,0-16.5,0
			c0,17,0,33.6,0,50.3c-5.8,0-11,0-16.8,0c0-16.6,0-33.2,0-50C672.4,124.5,667.2,124.5,661.4,124.5z"/>
		<path class="st1" d="M442,116.3c5.6,0,10.8,0,16.4,0c0,16.5,0,32.9,0,49.8c11.3,0,22.2,0,33.4,0c0,3.1,0,5.6,0,8.4
			c-16.5,0-33,0-49.8,0C442,155.2,442,135.9,442,116.3z"/>
		<path class="st2" d="M602.5,124.5c8.2,0,16.1,0,24.4,0c0,8.1,0,16.2,0,24.6c-8,0-16,0-24.4,0C602.5,141.2,602.5,133.1,602.5,124.5
			z"/>
		<path class="st2" d="M551,166.1c-8.3,0-16.2,0-24.6,0c0-13.8,0-27.5,0-41.5c8.1,0,16.1,0,24.6,0C551,138.2,551,151.9,551,166.1z"
			/>
	</g>
</g>
</svg>
