<?xml version="1.0" encoding="utf-8"?>
<!-- Generator: Adobe Illustrator 24.1.0, SVG Export Plug-In . SVG Version: 6.00 Build 0)  -->
<svg version="1.1" id="Layer_1" xmlns="http://www.w3.org/2000/svg" xmlns:xlink="http://www.w3.org/1999/xlink" x="0px" y="0px"
	 viewBox="0 0 85 85" style="enable-background:new 0 0 85 85;" xml:space="preserve">
<style type="text/css">
	.st0{fill:#0D4183;}
	.st1{fill:#FEFEFE;}
</style>
<g>
	<g>
		<path class="st0" d="M0,0c25.3,0,50.7,0,76.1,0c0,2.7,0,5.3,0,8c0,0.4,0,0.4,0,0.8c2.4,0,5.7,0,8.1,0c-0.2,0,0.8,0,0.8,0.1
			c0,0.2-0.1,0,0,0.4c0,8,0,16.3,0,24.7l-0.1,0.1h-0.1c-2.9,0-5.7,0-8.7,0c0,0.3,0,0.5,0,0.7c0,7.8,0,15.7,0,23.5c0,0.5,0,1,0,1.6
			c-11.2,0-22.2,0-33.4,0c-0.2,0-0.7,0.1-0.8,0c0,0.2,0,0,0,0.3c0,8.1,0,16.4,0,24.7c-11.3,0-22.7,0-34,0c0-2.9,0-5.9,0-8.8
			c-2.7,0-5.3,0-7.9,0C0,50.7,0,25.3,0,0z M8.9,67.9c5.4,0,10.7,0,16.1,0c0-8.4,0-16.7,0-24.9c0.4-0.4,0.7-0.7,1-1c11,0,22,0,33.1,0
			c0-2.6,0-5.3,0-7.9c-11.4,0-22.7,0-34,0c0-5.7,0-11.4,0-17c14.3,0,28.6,0,42.9,0c0-2.7,0-5.4,0-8.1c-19.7,0-39.3,0-59.1,0
			C8.9,28.5,8.9,48.2,8.9,67.9z"/>
		<path class="st1" d="M8.9,67.9c0-19.7,0-39.3,0-59.1c19.6,0,39.3,0,59.1,0c0,2.7,0,5.4,0,8.1c-14.3,0-28.5,0-42.9,0
			c0,5.7,0,11.4,0,17c11.3,0,22.6,0,34,0c0,2.7,0,5.3,0,7.9c-11.1,0-22.1,0-33.1,0c-0.3,0.3-0.6,0.6-1,1c0,8.1,0,16.5,0,24.9
			C19.6,67.9,14.3,67.9,8.9,67.9z"/>
	</g>
</g>
</svg>
