<?xml version="1.0" encoding="utf-8"?>
<!-- Generator: Adobe Illustrator 24.1.0, SVG Export Plug-In . SVG Version: 6.00 Build 0)  -->
<svg version="1.1" id="Layer_1" xmlns="http://www.w3.org/2000/svg" xmlns:xlink="http://www.w3.org/1999/xlink" x="0px" y="0px"
	 viewBox="0 0 300 300" style="enable-background:new 0 0 300 300;" xml:space="preserve">
<style type="text/css">
	.st0{fill:#0F4283;}
	.st1{fill:#0C3151;}
	.st2{fill:#0E3968;}
	.st3{fill:#FAFBFC;}
</style>
<g>
	<g>
		<path class="st0" d="M-937.4-69.1c-0.8-0.6-1.5-1.2-2.5-2.1c0.5-1.4,0.8-2.8,1.5-4.1c4.1-8.4,8.4-16.7,12.5-25.2
			c1.5-3.2,2.6-6.8,3.8-10.1c4.7-4.1,5.5-10.4,8.4-15.4c1.1-1.9,1.7-4.1,2.7-6.4c-1.5-0.6-2.4-1-3.3-1.2
			c-12.8-2.4-25.5-4.8-38.3-6.8c-2.7-0.4-5.8-2.7-8.7,0c-2.8-0.8-2-2.8-1.1-4.4c4.7-9.6,9.5-19.1,14.2-28.7c5-10,9.8-20.2,14.8-30.2
			c4.9-9.8,9.8-19.7,14.9-29.5c4-7.9,8.2-15.7,12-23.7c3.8-7.7,7.3-15.5,11-23.2c4.9-10.2,10-20.4,15-30.5c4.6-9.5,9.3-19,14.1-28.4
			c3.9-7.8,8.1-15.5,12-23.3c5.3-10.6,10.2-21.4,15.4-32.1c2.9-5.9,6.3-11.6,9.2-17.4c3.8-7.5,7.1-15.2,10.7-22.7
			c2.9-5.8,6.2-11.2,9.1-16.9c3.2-6.2,6.2-12.5,9.2-18.7c5-10.1,10-20.1,14.8-30.3c4.7-9.6,9.1-19.3,13.8-29
			c1.9-3.9,4.2-7.4,6.1-11.2c2.6-5.3,4.9-10.8,7.6-16c3.3-6.6,7-13.1,10.2-19.7c4.3-8.7,8.3-17.6,12.4-26.5c0.2-0.6,0.6-1.1,1-2.1
			c7.3,0.1,14.5,0.3,21.8,0.6c16.2,0.6,32.5,1.4,48.6,2.2c14.7,0.7,29.4,1.5,44.1,2.1c18,0.9,36,1.5,54.1,2.4
			c16.7,0.8,33.4,1.6,50.1,2.4c19.5,0.9,39.1,1.7,58.6,2.5c11.6,0.5,23.1,1.3,34.7,1.8c9.5,0.4,18.9,0.4,28.3,0.9
			c16.4,0.8,32.7,1.9,49.1,2.6c11.4,0.5,22.9,0.6,34.3,1.1c18.6,0.8,37.1,1.7,55.5,2.8c2.6,0.2,5.7-1.5,7.9,1.1
			c-3.5,11.4-7.1,22.8-10.6,34c-1.6,5.3-3.6,10.6-5.4,16c1.1,0.4,1.8,0.7,2.4,0.8c7.6,0.5,15.1,1.1,22.7,1.4c1.5,0,3-1.2,4.5-1.8
			c4,3.6,9,2.1,13.7,2.7c6.6,0.8,13.2,1.3,19.9,2c-1.6,4.3-3.4,8.6-4.9,13c-4.3,13.6-8.6,27.3-12.8,40.9c-4.4,14.4-9,28.8-13.4,43.2
			c-6.8,22-13.5,44.2-20.3,66.2c-0.5,1.6-1.1,3.1-1.7,4.7c-5.5-0.7-11.1-1.6-16.6-2.1c-13.4-1.2-26.8-2.3-40.3-3.4
			c-2.6-0.2-5.2-0.1-7.7-0.2c-0.6,0.8-1.4,1.4-1.7,2.3c-1.9,5.1-3.6,10.3-5.3,15.5c-4.2,12.7-8.5,25.5-12.7,38.3
			c-4.5,13.5-8.9,27.1-13.4,40.6c-4.4,13.4-8.9,26.7-13.3,40.2c-3.5,10.6-6.7,21.2-10.1,31.7c-1.6,4.8-3.5,9.7-5.2,14.5
			c-1.5,0.1-3,0.6-4.4,0.5c-5.4-0.7-10.8-1.6-16.2-2.5c-22.3-3.2-44.4-6.5-66.7-9.6c-17.8-2.5-35.7-4.8-53.4-7.3
			c-14.6-2.1-29-4.5-43.6-6.6c-11.7-1.7-23.6-3.1-35.3-4.8c-10.6-1.5-21.2-3-31.8-4.5c-0.6,0.6-1.2,1.1-1.5,1.8
			c-1.9,4.6-3.7,9.2-5.6,13.8c-5.7,13.7-11.6,27.4-17.2,41.2c-6,14.5-11.5,29.3-17.4,43.8c-6.3,15.3-12.9,30.4-19.2,45.7
			c-6.2,14.5-12,29.1-17.8,43.7c-1.2,0.2-2.6,0.9-3.7,0.7c-4.1-0.7-8.1-1.9-12.1-2.7c-6.9-1.4-14-2.9-20.9-4.2
			c-10.2-2-20.5-3.8-30.7-5.9c-9.7-2-19.4-4.3-29.1-6.2c-10.4-2.1-20.8-3.5-31.2-5.6c-15-3-29.8-6.3-44.7-9.3
			c-15.4-3.1-30.8-6.2-46.2-9.1C-931.7-69.6-934.5-69.1-937.4-69.1z M-706.5-556.3c-2.7-0.6-2.8,1.8-3.5,3.3
			c-8.6,17.9-17.1,35.8-25.7,53.7c-5.9,12.3-12,24.8-17.9,37.1c-10.2,21.2-20.3,42.4-30.3,63.6c-7.8,16.4-15.7,32.8-23.5,49.3
			c-5,10.3-9.8,20.6-14.8,30.9c-8.3,17.3-16.7,34.6-25,51.9c-9.4,19.6-18.6,39.1-28,58.7c-2.4,5.1-4.6,10.1-7.3,15.8
			c2.1,0.5,3.7,1.1,5.2,1.4c6.8,1.2,13.6,2.5,20.6,3.5c5.8,0.8,11.8,1.3,17.6,1.9c1.3,0.4,2.5,1.2,3.7,1.4
			c8.1,1.4,16.3,2.5,24.4,3.9c7.5,1.2,14.9,2.7,22.4,3.9c5,0.8,10.1,1.3,15.4,1.9c25.6-57.5,51-114.7,76.5-172.1
			c76.5,8.6,153,17.3,230.5,26c0.8-1.2,2.2-2.9,3-4.7c1.5-3.2,2.6-6.4,3.7-9.8c1-3.4,1.9-6.8,2.7-10.3c0.4-0.5,1.1-0.8,1.4-1.3
			c3.4-8.8,6.8-17.6,10.1-26.5c0.6-1.5,0.6-3.1,0.9-4.8c-2.1-0.3-3.5-0.6-5-0.8c-12.4-1.1-25-2-37.4-3.3
			c-13.3-1.3-26.6-2.8-39.9-4.2c-10.7-1.1-21.4-2-32.1-3c-8.4-0.8-16.8-1.8-25.1-2.6c-6.7-0.7-13.5-1.3-20.2-2
			c-10.5-1-21-2.1-31.5-3.1c-12.2-1.1-24.4-2.1-36.5-3.1c0.5-2.1,0.9-4.2,1.7-6.1c2.2-5.1,4.9-10.1,7.1-15.3
			c3.4-7.9,6.6-15.9,10.1-23.8c3.9-8.6,7.9-17.1,11.7-25.7c4.7-10.4,9.2-20.9,14.2-32c94.7,6.6,189.2,13.3,283.7,20
			c0.9-1.9,2-3.4,2.5-5.1c1-3.6,1.6-7.4,2.3-11c1.3-2.4,3-4.7,3.9-7.3c2.9-7.8,5.7-15.5,8.3-23.3c0.6-1.7,0.9-3.5,1.6-5.9
			c-5.2-0.3-9.7-0.5-14.3-0.9c-6.9-0.6-13.8-1.2-20.7-1.7c-10.9-0.6-21.8-0.9-32.7-1.5c-15.5-0.9-31-1.9-46.4-2.8
			c-9.8-0.6-19.5-1-29.3-1.7c-11.1-0.7-22.1-1.7-33.2-2.3c-13.9-0.8-27.8-1.2-41.6-2c-9.3-0.5-18.5-1.3-27.7-1.7
			c-14.7-0.9-29.3-1.5-44-2.3c-8.1-0.5-16.1-1-24.3-1.5c-15.7-1-31.3-1.9-47.1-2.6C-693-556.2-699.8-556.1-706.5-556.3z"/>
		<path class="st1" d="M-710.2-26.7c5.8-14.6,11.7-29.2,17.6-43.7c6.3-15.3,12.9-30.4,19.2-45.7c6-14.5,11.5-29.2,17.4-43.8
			c5.6-13.8,11.4-27.4,17.2-41.2c1.9-4.6,3.7-9.2,5.6-13.8c0.3-0.7,1-1.2,1.5-1.8c0.8,1.3,1.4,2.6,2.4,3.8
			c5.7,6.6,11.6,13.1,17.1,19.8c2.5,3.1,4.5,6.6,6.6,9.8c-8,20.3-16,40.8-24.1,61c-7,17.6-14.2,35-21.2,52.6
			c-5.3,13.3-10.3,26.6-15.6,39.9c-3.9,9.8-7.8,19.7-11.9,29.5c-0.5,1.2-0.3,4.1-3.2,3.3c-5.2-5.2-10.5-10.5-15.6-15.8
			C-701.5-17.3-705.8-22-710.2-26.7z"/>
		<path class="st2" d="M-605.5-183.2c-2.2-3.2-4.1-6.7-6.6-9.8c-5.6-6.7-11.4-13.1-17.1-19.8c-0.9-1.1-1.6-2.5-2.4-3.8
			c10.6,1.5,21.3,3.1,31.8,4.5c11.8,1.6,23.6,3.1,35.3,4.8c14.5,2.1,29,4.5,43.6,6.6c17.8,2.6,35.7,4.8,53.4,7.3
			c22.2,3.1,44.5,6.4,66.7,9.6c5.4,0.8,10.8,1.8,16.2,2.5c1.4,0.1,2.9-0.2,4.4-0.5c3.9,6.5,7.8,13,11.8,19.4
			c2.2,3.7,4.7,7.1,6.9,10.8c0.6,1.1,0.5,2.4,0.8,3.6c-2.4,0-4.8,0-7.2-0.3c-6.2-0.8-12.5-1.7-18.7-2.7c-21.6-3.2-43.2-6.4-64.8-9.6
			c-23.2-3.5-46.4-7.2-69.7-10.7c-16.5-2.5-33.1-4.8-49.6-7.3c-10.7-1.6-21.2-3.2-31.9-4.8C-603.5-183.6-604.5-183.3-605.5-183.2z"
			/>
		<path class="st1" d="M-360.7-148c-0.2-1.2-0.2-2.6-0.8-3.6c-2.2-3.7-4.7-7.1-6.9-10.8c-4-6.5-7.9-12.9-11.8-19.4
			c1.8-4.9,3.6-9.6,5.2-14.5c3.5-10.6,6.7-21.2,10.1-31.7c4.3-13.4,8.8-26.8,13.3-40.2c4.5-13.5,8.9-27.1,13.4-40.6
			c4.2-12.8,8.4-25.5,12.7-38.3c1.7-5.2,3.5-10.3,5.3-15.5c0.3-0.9,1.1-1.5,1.7-2.3c6,12.4,11.9,24.6,17.9,36.9
			c-2,6.5-4.1,12.9-6.1,19.4c-4.2,13.4-8.3,26.7-12.6,40c-5.5,17.2-11.2,34.5-16.7,51.7c-5.6,17.4-11.2,34.8-16.9,52.2
			c-1.5,4.6-3.1,9.1-4.7,13.6C-357.7-149.4-357.8-147-360.7-148z"/>
		<path class="st2" d="M-710.2-26.7c4.4,4.7,8.8,9.4,13.2,14c5.2,5.3,10.4,10.5,15.6,15.8c-3.4-0.4-6.9-0.6-10.3-1.3
			C-704.8-1-717.8-4-731.1-6.7c-11.9-2.5-24.1-4.6-36-7.1c-12.7-2.5-25.2-5.5-37.9-8c-11.9-2.5-24.1-4.6-36-7.1
			c-8.9-1.7-17.9-3.7-26.7-5.6c-11.8-2.4-23.6-4.9-35.5-7.4c-1.3-0.2-2.6-0.6-3.6-1.3c-9.8-7.9-19.4-15.9-29.1-24
			c-0.6-0.5-0.9-1.3-1.5-2.1c2.8-0.1,5.7-0.5,8.3,0c15.5,2.8,30.8,6,46.2,9.1c14.9,3,29.8,6.4,44.7,9.3c10.4,2.1,20.9,3.6,31.2,5.6
			c9.7,1.9,19.4,4.2,29.1,6.2c10.2,2,20.5,3.9,30.7,5.9c7,1.3,13.9,2.8,20.9,4.2c4.1,0.8,8,2,12.1,2.7
			C-712.8-25.8-711.4-26.5-710.2-26.7z"/>
		<path class="st1" d="M-253.6-359.1c0.5-1.5,1.3-3.1,1.7-4.7c6.8-22,13.5-44.2,20.3-66.2c4.4-14.4,8.9-28.8,13.4-43.2
			c4.3-13.6,8.5-27.3,12.8-40.9c1.4-4.4,3.2-8.7,4.9-13c2.3,5.8,4.6,11.7,6.9,17.6c2.1,5.6,3.9,11.2,6.2,16.6c1.3,3,1.5,5.6,0.5,8.7
			c-7,23.3-13.7,46.7-20.7,70c-8.6,28.7-17.4,57.3-26,86c-0.6,1.9-1.6,3.5-2.4,5.3c-2.5-4.6-5.1-8.9-7.3-13.7
			C-247.1-344-250.3-351.6-253.6-359.1z"/>
		<path class="st2" d="M-253.6-359.1c3.3,7.5,6.6,15.1,10.2,22.6c2.2,4.6,4.8,9.1,7.3,13.7c-1.2,0.4-2.5,1.3-3.7,1.2
			c-15.6-1.5-31.2-3.3-46.8-4.9c-4.6-0.5-9.3-0.9-13.8-1.2c-6-12.4-11.9-24.6-17.9-36.9c2.6,0.1,5.2,0,7.7,0.2
			c13.5,1.1,26.8,2.2,40.3,3.4C-264.7-360.7-259.2-359.9-253.6-359.1z"/>
		<path class="st1" d="M-234.3-531.7c-1.5,0.6-3,1.9-4.5,1.8c-7.6-0.3-15.2-0.8-22.7-1.4c-0.6,0-1.2-0.4-2.4-0.8
			c1.8-5.4,3.6-10.6,5.4-16c3.6-11.3,7.1-22.7,10.6-34c1.1,1.3,2.6,2.5,3.2,4c3.5,8.7,6.7,17.4,10.1,26.2c1.2,3,2.4,6.1,4,10.2
			C-231.6-539-232.9-535.3-234.3-531.7z"/>
		<path class="st2" d="M-961.4-140.2c2.8-2.6,5.9-0.4,8.7,0c12.8,2,25.6,4.5,38.3,6.8c0.9,0.2,1.8,0.6,3.3,1.2
			c-0.9,2.3-1.5,4.5-2.7,6.4c-3,5-3.7,11.4-8.4,15.4c-7.9-0.7-12.7-6.3-17.9-11.2C-947.1-127.9-954.3-134-961.4-140.2z"/>
		<path class="st3" d="M-338.8-498.3c-0.7,3.7-1.3,7.3-2.3,11c-0.4,1.7-1.5,3.2-2.5,5.1c-94.5-6.6-189.1-13.3-283.7-20.1
			c-5,11.1-9.5,21.6-14.2,32c-3.9,8.6-8,17.1-11.7,25.7c-3.5,7.8-6.6,15.8-10.2,23.8c-2.2,5.1-4.9,10.1-7.1,15.3
			c-0.9,2-1.1,4.2-1.7,6.1c8.5,11.8,16.6,23.7,25.6,34.4c63.7,6.7,126.8,13.4,189.8,20c-0.9,3.4-1.7,7-2.7,10.3s-2.2,6.6-3.7,9.8
			c-0.8,1.8-2.2,3.5-3,4.7c-77.5-8.7-153.9-17.4-230.5-26c-25.5,57.4-50.9,114.6-76.5,172.1c-5.3-0.7-10.4-1.1-15.4-1.9
			c-7.5-1.2-14.9-2.7-22.4-3.9c-8.1-1.4-16.3-2.5-24.4-3.9c-1.3-0.2-2.5-0.9-3.7-1.4c2.7-5.8,5.6-11.6,8.4-17.4
			c7-15,13.9-30,20.8-45.1c10.9-23.4,21.9-46.8,32.9-70.2c10-21.5,19.8-43,29.8-64.5c8.9-19.3,17.9-38.7,26.9-58.1
			c6.6-14.1,13.2-28.2,19.7-42.3c5.7-12.3,11.4-24.7,17.1-36.9c4.4,0,8.9-0.3,13.3-0.1c17.2,1.1,34.4,2.4,51.5,3.6
			c24.3,1.5,48.6,3.1,72.9,4.6c13.6,0.9,27.1,2.1,40.7,3c20.7,1.4,41.3,2.6,62,4c13.7,0.8,27.4,1.8,41.1,2.7
			c9.6,0.6,19.2,1.1,28.7,1.7C-361.6-499.9-350.2-499.1-338.8-498.3z"/>
		<path class="st1" d="M-683.4-520c-5.7,12.3-11.4,24.6-17.1,36.9c-6.5,14.2-13.2,28.3-19.7,42.3c-9,19.4-18,38.8-26.9,58.1
			c-10,21.5-19.8,43-29.8,64.6c-10.9,23.4-21.9,46.8-32.9,70.2c-7,15-13.9,30-20.8,45.1c-2.7,5.8-5.5,11.6-8.4,17.4
			c-5.9-0.6-11.8-1.1-17.6-1.9c-6.9-1-13.7-2.2-20.6-3.5c-1.5-0.3-3-0.7-5.2-1.4c2.6-5.6,4.9-10.8,7.3-15.8
			c9.3-19.5,18.6-39.2,28-58.7c8.3-17.3,16.7-34.6,25-51.9c5-10.3,9.9-20.5,14.8-30.9c7.7-16.4,15.5-32.8,23.4-49.2
			c10.1-21.2,20.1-42.4,30.3-63.6c5.9-12.3,11.9-24.7,17.9-37.1c8.6-17.9,17.1-35.8,25.7-53.7c0.7-1.4,0.8-3.8,3.5-3.3
			c3.4,5.3,6.6,10.6,10,16C-692.3-533.5-687.8-526.9-683.4-520z"/>
		<path class="st2" d="M-683.4-520c-4.4-6.7-8.9-13.5-13.1-20.3c-3.4-5.3-6.6-10.6-10-16c6.8,0.2,13.5,0.1,20.3,0.4
			c15.7,0.8,31.4,1.6,47.1,2.6c8.1,0.5,16.2,1.1,24.3,1.5c14.7,0.8,29.3,1.5,44,2.3c9.3,0.5,18.5,1.3,27.7,1.7
			c13.8,0.9,27.8,1.4,41.6,2.1c11.1,0.7,22.1,1.6,33.2,2.3c9.7,0.6,19.5,1.1,29.3,1.7c15.5,0.9,31,2,46.4,2.8
			c10.9,0.6,21.8,0.9,32.7,1.5c7,0.4,13.8,1.1,20.7,1.7c4.5,0.4,9.1,0.6,14.3,0.9c-0.6,2.5-1,4.2-1.6,5.9
			c-2.7,7.8-5.4,15.6-8.3,23.3c-1,2.6-2.6,4.8-3.9,7.3c-11.3-0.8-22.8-1.5-34.2-2.3c-9.6-0.6-19.2-1.1-28.7-1.7
			c-13.7-0.8-27.4-1.8-41.1-2.7c-20.7-1.4-41.4-2.6-62-4c-13.6-0.9-27.1-2.1-40.7-3c-24.3-1.5-48.6-3.1-72.9-4.6
			c-17.1-1.1-34.4-2.4-51.5-3.6C-674.6-520.4-679-520.1-683.4-520z"/>
		<path class="st2" d="M-456.8-345.2c-63-6.6-126-13.2-189.8-20c-9-10.7-17.3-22.7-25.6-34.4c12.2,1,24.4,1.9,36.5,3.1
			c10.6,1,21,2,31.5,3.1c6.7,0.7,13.5,1.3,20.2,2c8.4,0.9,16.7,1.8,25.1,2.6c10.7,1,21.3,1.9,32.1,3c13.3,1.4,26.6,2.9,39.9,4.2
			c12.5,1.2,25,2.1,37.4,3.3c1.4,0.1,2.9,0.5,5,0.8c-0.3,1.8-0.4,3.4-0.9,4.8c-3.3,8.8-6.7,17.6-10.1,26.5
			C-455.6-345.9-456.3-345.5-456.8-345.2z"/>
	</g>
</g>
</svg>
