<?xml version="1.0" encoding="utf-8"?>
<!-- Generator: Adobe Illustrator 24.1.0, SVG Export Plug-In . SVG Version: 6.00 Build 0)  -->
<svg version="1.1" id="Layer_1" xmlns="http://www.w3.org/2000/svg" xmlns:xlink="http://www.w3.org/1999/xlink" x="0px" y="0px"
	 viewBox="0 0 700 678.5" style="enable-background:new 0 0 700 678.5;" xml:space="preserve">
<style type="text/css">
	.st0{fill:#0F4283;}
	.st1{fill:#0E3968;}
	.st2{fill:#0C3151;}
	.st3{fill:#FBFCFD;}
	.st4{fill:#CFD0D1;}
</style>
<g>
	<g>
		<path class="st0" d="M2.3,597.2c-0.8-1.3-2.5-2.6-2.3-3.8c3-27.8,6.5-55.6,9.7-83.3c2.9-25.4,5.4-50.9,8.4-76.3
			c2.6-22.6,5.4-45.3,8-67.9c2.9-25.6,5.6-51.3,8.5-76.9c2.3-20.6,4.7-41,7.1-61.4c2.9-25,5.6-49.9,8.6-74.8
			c3.3-29.5,6.9-59.2,10.2-88.8c1.3-11.7,2.7-23.5,4.1-35.9c8.2-0.5,15.9-1.1,23.8-1.5c20.8-1,41.4-1.9,62.3-3
			c29.1-1.4,58.3-2.8,87.3-4.2c29.2-1.4,58.6-2.8,87.8-4.2c32.6-1.6,65.2-3.2,97.8-4.7C456.4,8.6,489.1,7,522,5.3
			c15.3-0.7,30.8-1.1,46.1-1.9c17.6-0.9,35.5-2.1,53.1-2.9c1.8,0,5.8-2.2,5.6,2.7c-0.2,12-0.4,24-0.5,36c-0.1,6.8,0.1,13.6,0.1,20.9
			c2.4-0.4,4.3-0.8,6.3-1.2c13.2-0.4,26.5-0.8,39.8-1.2c6.6-0.2,12.9-0.6,20.7-0.9c0.1,2.7,0.2,5,0.3,7.5c0,3,0,6,0,9
			c0.3,21.5,0.5,43,0.9,64.5c0.2,20.2,0.5,40.4,0.7,60.6c0.1,16,0.2,32.1,0.5,48.1c-1-0.2-1.9-0.8-2.8-0.7c-21,0.6-42.1,1.1-63,1.8
			c-2.7,0.1-3.8,1.1-2.5,3.7c-0.3,14.9-0.6,29.9-0.7,44.7c0.1,19.9,0.5,39.8,0.5,59.7c0.1,20.2-0.1,40.1-0.2,60.3
			c-0.1,11.4-0.1,22.8-0.2,34c-2.3,0.3-4.5,0.9-6.9,0.9c-5.3,0.1-10.7-0.2-16-0.2c-20.8,0.3-41.7,0.8-62.3,1
			c-13.8,0.1-27.7,0.1-41.5,0.3c-11.4,0.2-22.7,0.7-34.1,0.9c-17.9,0.2-35.8,0.1-53.6,0.2c-13.7,0.1-27.4,0.2-41.1,0.6
			c-7.3,0.2-14.5,1-21.8,1.5c-0.7,1.5-1.7,2.8-1.8,4.4c-0.5,5.3-0.7,10.7-1,16c-1,20.7-2,41.5-3,62.3c-1.3,24.7-2.6,49.4-4,74.2
			c-1.6,18.9-2.6,37.5-3.7,56.3c-0.5,0.2-1,0.5-1.4,0.5c-16.5,0-32.9,0.1-49.5,0c-16.2-0.1-32.4-0.5-48.6-0.6
			c-18.6-0.1-37,0.2-55.5,0.2c-16.4,0-32.9-0.4-49.4-0.6c-15.1-0.1-30.5-0.3-45.6-0.3c-8.6-0.1-17.2,0-25.9,0.1
			c0.4-7.8,0.6-15.6,1.3-23.4c0.8-9.6,2.1-19.3,3-28.8c0.3-3.1,0.3-6.3,0.4-9.3c0.7-3.1,1.3-6.4,2-9.9c-5.7-0.3-10.5-0.6-15.4-0.7
			c-11.3-0.1-22.5-0.1-33.8,0.1C12.5,596,7.5,596.8,2.3,597.2z M118.5,83.2c-0.2,0.4-0.4,0.9-0.5,1.3c-0.1,2.3-0.1,4.6-0.3,7
			c-2.5,23.1-4.8,46.2-7.4,69.4c-1.3,13.2-2.8,26.3-4.2,39.4c-2.1,20.8-4.1,41.4-6.2,62.2c-1.2,12.4-2.8,24.8-4,37.3
			c-2.4,23.9-4.5,47.6-7,71.4c-2.4,24.3-4.8,48.7-7.4,73c-1.2,12.7-2.4,25.3-3.7,38c-1.5,14.4-3.1,28.8-4.9,44.4
			c9-0.6,17.2-1,25.5-1.4c1.2,0.2,2.5,0.7,3.7,0.7c28.5-0.1,57.2-0.3,85.8-0.5c6.2-0.1,12.3-0.1,19.1-0.2
			c5.2-67.5,10.4-134.3,15.5-201.6c89.1-2.1,177.7-4.2,266.2-6.4c0.4-8.5,0.8-15.8,0.9-23.1c0.1-6.9-0.5-13.6-0.8-20.5
			c0.8-6.9,1.6-13.7,2.6-21.8c-88.3,2.7-175.8,5.2-263.2,7.9c0.6-11.2,0.9-22.4,1.7-33.5c1.9-26.2,4-52.4,6.1-78.6
			c0.3-3.6,1-7.3,1.4-11c107.7-4.2,214.9-8.5,322.3-12.7c0.3-10.4,0.5-19.9,0.6-29.3c0-1.5-0.9-3.1-1.4-4.7c0.5-1.8,1.5-3.6,1.6-5.4
			c0.3-6.7,0.1-13.3,0.1-20.5c-1.5-0.2-3.1-0.6-4.6-0.5c-27.1,0.8-54.1,1.8-81.2,2.9c-20.9,0.9-41.7,2.2-62.5,3.1
			c-31.1,1.3-62,2.4-93.1,3.8c-21.3,0.9-42.5,2.1-63.7,3.1c-15.1,0.7-30.2,1.1-45.2,1.7c-17.1,0.7-34.3,1.8-51.5,2.6
			c-13.1,0.7-26.2,1.4-39.4,2.1C119.1,82.9,118.7,83,118.5,83.2z"/>
		<path class="st1" d="M348.7,455.5c7.3-0.5,14.5-1.3,21.8-1.5c13.7-0.4,27.4-0.5,41.1-0.6c17.9-0.2,35.7-0.1,53.6-0.2
			c11.4-0.2,22.7-0.7,34.1-0.9c13.8-0.2,27.7-0.1,41.5-0.3c20.9-0.3,41.5-0.7,62.3-1c5.3-0.1,10.7,0.2,16,0.2c2.3,0,4.6-0.6,6.9-0.9
			c1.4,4,2.8,8,4.4,11.9c0.3,0.7,1.5,1,2.4,1.5c-1.6,1.3-3.3,3.5-4.9,3.6c-18.6,0.5-37.1,0.5-55.7,0.7c-23.8,0.2-47.5,0.5-71.3,0.9
			c-21.3,0.2-42.5,0.4-63.7,0.7c-24.9,0.3-49.9,0.6-74.7,0.9C358.2,465.3,353.5,460.5,348.7,455.5z"/>
		<path class="st2" d="M348.7,455.5c4.6,4.8,9.4,9.9,14.2,14.7c-0.8,15.6-1.9,31.2-2.6,46.7c-2,41.3-4.1,82.7-6.1,124.1
			c-0.5,11-1.1,22.1-1.7,33.2c-0.1,1.6,0.9,4.6-2.8,3.5c-4.6-3-9.3-6.2-13.9-9.2c1-18.8,2.1-37.4,3.1-56.2c1.3-24.7,2.7-49.5,4-74.2
			c1.1-20.8,2-41.4,3-62.3c0.3-5.3,0.5-10.7,1-16C347,458.3,348.1,456.9,348.7,455.5z"/>
		<path class="st1" d="M335.7,668.5c4.6,3,9.3,6.2,13.9,9.2c-9.2,0.3-18.4,0.7-27.5,0.8c-16.8,0-33.7-0.2-50.6-0.4
			c-22.5-0.2-44.9-0.5-67.3-0.6c-17-0.1-34.1,0-51-0.1c-23.2-0.1-46.4,0-69.7-0.7c-4.7-0.1-9.5-3.1-14.1-4.8
			c-3.2-1.2-6.4-2.6-9.5-3.9c8.7-0.1,17.3-0.2,25.9-0.1c15.2,0,30.4,0.2,45.6,0.3c16.4,0.1,32.9,0.6,49.4,0.6
			c18.6,0.1,37-0.2,55.5-0.2c16.2,0,32.4,0.5,48.6,0.6c16.4,0.1,33,0,49.5,0C334.8,669,335.2,668.7,335.7,668.5z"/>
		<path class="st1" d="M626.9,251.4c-1.2-2.7-0.1-3.7,2.5-3.7c21-0.6,42.1-1.2,63-1.8c1,0,1.9,0.5,2.8,0.7c1.5,4.1,2.8,8.3,4.3,12.4
			c0.1,2.8,0.3,5.6,0.4,8.9c-22.7,0.8-44.9,1.6-67.2,2.5c-1.5-5.9-3-11.9-4.6-17.7C628.2,252,627.4,251.7,626.9,251.4z"/>
		<path class="st2" d="M626.9,251.4c0.5,0.4,1.3,0.7,1.4,1.2c1.6,6,3.1,11.8,4.6,17.7c0,27.1-0.1,54.2,0,81.2
			c0.1,27.9,0.3,56,0.4,83.9c0,9.4,0,18.7,0,28c-0.9-0.5-2.1-0.8-2.4-1.5c-1.6-3.9-3-7.9-4.4-11.9c0.1-11.4,0.1-22.7,0.2-34
			c0.1-20.1,0.3-40.1,0.2-60.3c-0.1-19.9-0.6-39.7-0.5-59.7C626.2,281.1,626.6,266.2,626.9,251.4z"/>
		<path class="st2" d="M699.7,259c-1.5-4.1-2.8-8.3-4.3-12.4c-0.1-16-0.2-32.1-0.5-48.1c-0.2-20.2-0.4-40.3-0.7-60.6
			c-0.2-21.5-0.5-43-0.9-64.5c0-3,0-6,0-9c1.4,9.9,3.4,19.7,3.9,29.6c0.8,13.1,0.5,26.3,0.7,39.6c0.4,28.2,0.9,56.5,1.3,84.7
			C699.4,231.8,699.5,245.4,699.7,259z"/>
		<path class="st1" d="M2.3,597.2c5-0.5,10.1-1.3,15.2-1.4c11.3-0.2,22.5-0.2,33.8-0.1c4.7,0,9.6,0.4,15.4,0.7
			c-0.7,3.6-1.4,6.8-2,9.9c-7.5,0.3-15,0-22.3,1.1C27.4,609.5,15,603.1,2.3,597.2z"/>
		<path class="st2" d="M632.4,59.3c-1.9,0.4-3.8,0.7-6.3,1.2c0-7.4-0.2-14.1-0.1-20.9c0.2-12.1,0.4-24.1,0.6-36.1
			c4.3,13.7,6.6,27.8,6,42.4C632.4,50.3,632.5,54.8,632.4,59.3z"/>
		<path class="st3" d="M489,273.6c0.3,6.9,0.7,13.7,0.8,20.5c0,7.4-0.6,14.7-0.9,23.1c-88.5,2.1-177.1,4.2-266.2,6.4
			c-5.2,67.2-10.3,134.1-15.5,201.6c-6.7,0.1-12.9,0.2-19.1,0.2c-28.5,0.1-57.2,0.3-85.8,0.5c-1.2,0-2.5-0.4-3.7-0.7
			c1.8-18.7,3.5-37.4,5.4-56.1c3.5-35.7,7.2-71.4,10.6-107c2.9-29.1,5.5-58.4,8.4-87.5c3.4-36.2,7-72.4,10.6-108.6
			c1.9-19.4,3.9-38.6,5.8-58c0.8-0.2,1.6-0.6,2.4-0.6c38.3-1.6,76.6-3.1,115-4.8c39.7-1.6,79.4-3.2,119-4.8c38.9-1.6,78-3.3,117-4.9
			c22.1-0.9,44.2-2,66.3-2.9c0.5,1.5,1.5,3.2,1.4,4.7c-0.1,9.5-0.3,19-0.6,29.3c-107.3,4.2-214.5,8.4-322.2,12.6
			c-0.5,3.7-1.2,7.4-1.4,11c-2.1,26.2-4.1,52.4-6.1,78.6c-0.8,11.2-1.2,22.4-1.7,33.5c5.7,7,11.3,13.9,16.6,20.6
			c1.9,0.1,3.1,0.4,4.3,0.3c32.6-0.9,65.2-1.7,97.9-2.7c24.9-0.7,49.8-1.2,74.7-2C444.3,275,466.6,274.3,489,273.6z"/>
		<path class="st1" d="M558.9,89.5c-22.1,1-44.2,2-66.3,2.9c-38.9,1.6-78,3.3-117,4.9c-39.6,1.6-79.4,3.2-119,4.8
			c-38.3,1.8-76.6,3.3-115,5c-0.9,0-1.6,0.4-2.4,0.6c-3.8-4.7-7.8-9.5-11.6-14.2c-2.9-3.6-5.6-7.4-8.4-11.1
			c13.1-0.7,26.2-1.4,39.4-2.1c17.1-0.9,34.3-1.9,51.5-2.6c15-0.7,30.1-1,45.1-1.7c21.3-1,42.6-2.1,63.7-3.1
			c31.1-1.3,62-2.4,93.1-3.8c20.9-0.9,41.8-2.2,62.6-3.1c27-1.1,54-2.1,81-3c1.5,0,3.1,0.4,4.6,0.5c0,7.2,0,13.8-0.1,20.5
			C560.2,86,559.4,87.8,558.9,89.5z"/>
		<path class="st2" d="M119.4,82.8c2.8,3.6,5.4,7.4,8.4,11c3.8,4.8,7.7,9.5,11.6,14.2c-1.9,19.4-3.9,38.6-5.8,58
			c-3.6,36.2-7.3,72.4-10.6,108.6c-2.8,29.1-5.4,58.4-8.4,87.5c-3.4,35.7-7.2,71.4-10.6,107c-1.8,18.7-3.6,37.3-5.4,56.1
			c-8.3,0.5-16.4,1-25.5,1.4c1.7-15.5,3.3-30,4.9-44.4c1.4-12.6,2.5-25.3,3.7-38c2.4-24.3,4.8-48.7,7.4-73c2.4-23.9,4.5-47.6,7-71.4
			c1.2-12.4,2.8-24.9,4-37.3c2.1-20.8,4.1-41.4,6.2-62.2c1.3-13.2,2.7-26.2,4.2-39.4c2.5-23.1,4.9-46.3,7.4-69.4
			c0.2-2.3,0.3-4.6,0.3-7c0.2-0.4,0.4-0.9,0.5-1.3C118.7,83,119.1,82.9,119.4,82.8z"/>
		<path class="st1" d="M489,273.6c-22.4,0.7-44.8,1.4-67.2,2.1c-24.9,0.7-49.9,1.4-74.7,2c-32.7,0.9-65.2,1.8-97.9,2.7
			c-1.2,0.1-2.4-0.2-4.3-0.3c-5.3-6.6-11-13.5-16.6-20.6c87.5-2.5,175-5.1,263.4-7.8C490.6,259.9,489.8,266.7,489,273.6z"/>
		<path class="st4" d="M118.5,83.2c-0.2,0.4-0.4,0.9-0.5,1.3C118.2,84,118.3,83.6,118.5,83.2z"/>
	</g>
</g>
</svg>
