<?xml version="1.0" encoding="utf-8"?>
<!-- Generator: Adobe Illustrator 24.1.0, SVG Export Plug-In . SVG Version: 6.00 Build 0)  -->
<svg version="1.1" id="Layer_1" xmlns="http://www.w3.org/2000/svg" xmlns:xlink="http://www.w3.org/1999/xlink" x="0px" y="0px"
	 viewBox="0 0 875.7 84" style="enable-background:new 0 0 875.7 84;" xml:space="preserve">
<style type="text/css">
	.st0{fill:#FFFFFF;}
	.st1{fill:#0F4284;}
</style>
<g>
	<g>
		<path class="st0" d="M765.7,84c-11.3,0-22.6,0-33.9,0c0-2.8,0-5.5,0-8.4c-3.2-0.2-5.8-0.4-8.8-0.5c0-13.8,0-27.5,0-41.2
			c-2.9,0-5.5,0-8.2,0c0,16.9,0,33.5,0,50.1c-11.3,0-22.6,0-33.9,0c0-2.7,0-5.5,0-8.5c-3-0.1-5.6-0.3-8.6-0.4c0-16.9,0-33.2,0-49.7
			c-3,0-5.6,0-8.4,0c0,19.8,0,39.2,0,58.6c-11.3,0-22.6,0-33.9,0c0-2.7,0-5.5,0-8.4c-2.8-0.2-5.4-0.3-7.9-0.5
			c-0.1-2.9-0.3-5.3-0.4-7.6c-11.4,0-22.4,0-33.6,0c0,5.7,0,11.1,0,16.5c-22.6,0-45.2,0-67.9,0c0-2.7,0-5.5,0-8.4c-2.8,0-5.3,0-8,0
			c0,2.9,0,5.7,0,8.4c-11.3,0-22.6,0-33.9,0c0-2.7,0-5.4,0-8c-3.3,0-5.7,0-8.4,0c-0.2,2.8-0.4,5.4-0.6,8c-19.6,0-39.3,0-58.9,0
			c0-2.7,0-5.5,0-8.5c-3-0.1-5.5-0.3-8-0.4c-0.2-3-0.3-5.4-0.4-7.8c-3-0.1-5.6-0.3-8-0.4c0-19.7,0-38.9,0-58.2
			c2.9-0.1,5.5-0.3,8.5-0.4c0-3,0-5.5,0-8.2c19.8,0,39.1,0,59.1,0c0,2.9,0,5.6,0,8.2c5.8,0,11.1,0,16.6,0c0.1-2.8,0.2-5.4,0.4-8
			c19.7,0,39.2,0,59.1,0c0,2.9,0,5.5,0,8.1c2.7,0,5,0,7.4,0c0.2-2.9,0.3-5.6,0.4-8.1c22.9,0,45.2,0,67.7,0c0.2,2.9,0.3,5.4,0.5,8
			c2.9,0,5.5,0,8.5,0c0-2.9,0-5.4,0-8.2C656,0,689.4,0,723,0c0.2,2.6,0.4,5.2,0.6,7.8c2.9,0,5.5,0,8.4,0c0-2.7,0-5.1,0-7.6
			c19.9,0,39.4,0,59.2,0c0,2.9,0,5.5,0,8.1c2.7,0,5,0,7.4,0c0.2-2.9,0.3-5.6,0.5-8.2c11.5,0,22.6,0,34,0c0,2.9,0,5.4,0,8.2
			c2.9,0.1,5.5,0.2,8.5,0.4c0,13.9,0,27.5,0,41.6c8.7,0,16.9,0,25.5,0c0,2.9,0,5.4,0,8.3c3.1-0.2,5.9-0.3,8.6-0.5
			c0,8.6,0,17.1,0,25.7c-33.9,0-67.9,0-101.8,0c0-2.7,0-5.4,0-8.4c-2.9,0-5.4,0-8.4,0C765.4,78.6,765.6,81.2,765.7,84z M495.2,67
			c0-5.6,0-10.9,0-16.3c8.6,0,16.6,0,25.2,0c0,5.6,0,10.9,0,16.3c5.9,0,11.3,0,16.5,0c0-16.9,0-33.4,0-50.2c-2.8,0-5.2,0-7.8,0
			c-0.2-2.8-0.4-5.4-0.5-7.9c-14.3,0-28,0-41.8,0c-0.2,2.8-0.3,5.2-0.4,7.8c-2.7,0.2-5.3,0.3-7.7,0.5c0,16.9,0,33.5,0,50
			C484.2,67,489.5,67,495.2,67z M748.8,67c0-5.8,0-11,0-16.4c8.4,0,16.5,0,25,0c0,5.5,0,10.9,0,16.3c5.9,0,11.2,0,16.6,0
			c0-16.8,0-33.4,0-50.2c-2.8,0-5.2,0-7.8,0c-0.2-2.8-0.4-5.4-0.7-8c-14.1,0-27.9,0-41.7,0c-0.2,2.8-0.4,5.3-0.6,7.9
			c-2.8,0.1-5.2,0.3-7.7,0.4c0,16.9,0,33.4,0,50C737.6,67,742.8,67,748.8,67z M554.5,8.6c0,19.7,0,39,0,58.3c5.7,0,11.1,0,16.9,0
			c0-5.7,0-11,0-16.7c11.4,0,22.3,0,33.6,0c0-2.9,0-5.5,0-8.1c2.9-0.2,5.4-0.3,7.9-0.4c0-8.4,0-16.5,0-25c-2.8,0-5.2,0-8.2,0
			c0-2.9,0-5.4,0-8.1C587.8,8.6,571.4,8.6,554.5,8.6z M452.5,8.7c-14,0-27.7,0-41.7,0c-0.2,2.7-0.3,5.3-0.5,8.1c-2.7,0-5.2,0-7.7,0
			c0,14.1,0,27.8,0,41.6c2.8,0.2,5.2,0.3,7.8,0.5c0.1,2.8,0.3,5.4,0.4,8c14.1,0,27.9,0,41.8,0c0.2-2.8,0.3-5.3,0.5-8
			c3-0.2,5.4-0.3,8-0.5c0-2.7,0-5.2,0-7.8c-5.7,0-11.1,0-16.8,0c0,2.7,0,5.1,0,7.8c-8.4,0-16.5,0-24.8,0c0-13.9,0-27.6,0-41.5
			c8.4,0,16.5,0,24.7,0c0.1,2.7,0.3,5.3,0.4,7.7c5.8,0,11.2,0,16.5,0c0-2.8,0-5.2,0-7.8c-2.8-0.1-5.4-0.3-8.1-0.4
			C452.8,13.8,452.6,11.3,452.5,8.7z M858,58.6c-11.2,0-22.2,0-33.6,0c0-17,0-33.4,0-49.9c-5.8,0-11.1,0-16.6,0
			c0,19.6,0,38.9,0,58.1c16.9,0,33.6,0,50.2,0C858,64.1,858,61.7,858,58.6z M680.8,66.8c6,0,11.4,0,17.2,0c0-16.9,0-33.4,0-50.2
			c5.8,0,11.1,0,16.5,0c0-2.7,0-5.1,0-7.9c-16.8,0-33.5,0-50.2,0c0,2.8,0,5.3,0,8.2c5.6,0,10.9,0,16.4,0
			C680.8,33.7,680.8,50.1,680.8,66.8z M630.6,8.7c0,19.6,0,38.9,0,58.3c5.6,0,10.9,0,16.3,0c0-19.6,0-38.9,0-58.3
			C641.2,8.7,636,8.7,630.6,8.7z"/>
		<path class="st1" d="M495.2,67c-5.7,0-11,0-16.6,0c0-16.5,0-33,0-50c2.5-0.1,5-0.3,7.7-0.5c0.1-2.6,0.3-5,0.4-7.8
			c13.9,0,27.6,0,41.8,0c0.2,2.5,0.3,5,0.5,7.9c2.6,0,5,0,7.8,0c0,16.8,0,33.4,0,50.2c-5.3,0-10.7,0-16.5,0c0-5.4,0-10.7,0-16.3
			c-8.6,0-16.6,0-25.2,0C495.2,56.1,495.2,61.4,495.2,67z M520.1,17c-8.6,0-16.6,0-24.6,0c0,8.4,0,16.5,0,24.5c8.4,0,16.4,0,24.6,0
			C520.1,33.3,520.1,25.3,520.1,17z"/>
		<path class="st1" d="M748.8,67c-5.9,0-11.2,0-16.8,0c0-16.6,0-33.1,0-50c2.4-0.1,4.8-0.2,7.7-0.4c0.2-2.5,0.4-5.1,0.6-7.9
			c13.8,0,27.6,0,41.7,0c0.2,2.6,0.4,5.2,0.7,8c2.6,0,5.1,0,7.8,0c0,16.8,0,33.4,0,50.2c-5.4,0-10.7,0-16.6,0c0-5.4,0-10.8,0-16.3
			c-8.5,0-16.6,0-25,0C748.8,56.1,748.8,61.2,748.8,67z M773.5,17c-8.4,0-16.5,0-24.6,0c0,8.3,0,16.5,0,24.6c8.3,0,16.4,0,24.6,0
			C773.5,33.4,773.5,25.4,773.5,17z"/>
		<path class="st1" d="M554.5,8.6c16.9,0,33.3,0,50.3,0c0,2.7,0,5.2,0,8.1c3,0,5.4,0,8.2,0c0,8.5,0,16.6,0,25
			c-2.5,0.1-5,0.3-7.9,0.4c0,2.6,0,5.2,0,8.1c-11.4,0-22.3,0-33.6,0c0,5.7,0,11,0,16.7c-5.8,0-11.2,0-16.9,0
			C554.5,47.6,554.5,28.3,554.5,8.6z M571.4,41.6c8.4,0,16.5,0,24.7,0c0-8.4,0-16.5,0-24.6c-8.4,0-16.4,0-24.7,0
			C571.4,25.2,571.4,33.2,571.4,41.6z"/>
		<path class="st1" d="M452.5,8.7c0.2,2.6,0.3,5.1,0.5,7.8c2.7,0.1,5.3,0.3,8.1,0.4c0,2.5,0,4.9,0,7.8c-5.3,0-10.7,0-16.5,0
			c-0.1-2.4-0.3-4.9-0.4-7.7c-8.3,0-16.3,0-24.7,0c0,13.8,0,27.5,0,41.5c8.3,0,16.4,0,24.8,0c0-2.6,0-5.1,0-7.8c5.7,0,11.1,0,16.8,0
			c0,2.6,0,5.1,0,7.8c-2.6,0.2-5.1,0.3-8,0.5c-0.2,2.7-0.3,5.2-0.5,8c-13.9,0-27.6,0-41.8,0c-0.1-2.6-0.2-5.1-0.4-8
			c-2.6-0.2-5-0.3-7.8-0.5c0-13.8,0-27.6,0-41.6c2.5,0,4.9,0,7.7,0c0.2-2.9,0.4-5.4,0.5-8.1C424.8,8.7,438.4,8.7,452.5,8.7z"/>
		<path class="st1" d="M858,58.6c0,3,0,5.4,0,8.2c-16.6,0-33.3,0-50.2,0c0-19.3,0-38.6,0-58.1c5.5,0,10.8,0,16.6,0
			c0,16.6,0,32.9,0,49.9C835.9,58.6,846.9,58.6,858,58.6z"/>
		<path class="st1" d="M680.8,66.8c0-16.8,0-33.2,0-49.9c-5.5,0-10.8,0-16.4,0c0-2.8,0-5.3,0-8.2c16.7,0,33.3,0,50.2,0
			c0,2.8,0,5.2,0,7.9c-5.4,0-10.7,0-16.5,0c0,16.8,0,33.3,0,50.2C692.2,66.8,686.8,66.8,680.8,66.8z"/>
		<path class="st1" d="M630.6,8.7c5.4,0,10.7,0,16.3,0c0,19.4,0,38.7,0,58.3c-5.4,0-10.6,0-16.3,0C630.6,47.6,630.6,28.3,630.6,8.7z
			"/>
		<path class="st0" d="M520.1,17c0,8.2,0,16.2,0,24.5c-8.2,0-16.2,0-24.6,0c0-8,0-16.1,0-24.5C503.5,17,511.6,17,520.1,17z"/>
		<path class="st0" d="M773.5,17c0,8.4,0,16.4,0,24.6c-8.2,0-16.3,0-24.6,0c0-8.2,0-16.3,0-24.6C757.1,17,765.1,17,773.5,17z"/>
		<path class="st0" d="M571.4,41.6c0-8.4,0-16.4,0-24.6c8.3,0,16.3,0,24.7,0c0,8.2,0,16.2,0,24.6C587.8,41.6,579.8,41.6,571.4,41.6z
			"/>
	</g>
</g>
<g>
	<g>
		<path class="st0" d="M42.7,84c-11.6,0-23.3,0-34.9,0c0.2-2.7,0.4-5.4,0.5-8.4C5.1,75.4,2.6,75.2,0,75C0,49.9,0,25.2,0,0.1
			c36.6,0,72.9,0,109.5,0c0,2.9,0,5.6,0,8.3c2.9,0.1,5.5,0.2,8.5,0.4c0,14,0,27.6,0,41.2c8.7,0,16.9,0,25.5,0c0-13.9,0-27.5,0-41.3
			c2.9-0.1,5.5-0.3,8.5-0.4c0-3.1,0-5.6,0-8.1c19.9,0,39.3,0,59.1,0c0,2.9,0,5.4,0,7.9c5.8,0,11.2,0,16.6,0c0.2-3,0.3-5.5,0.5-7.9
			c19.8,0,39.2,0,58.9,0c0,2.9,0,5.5,0,8.1c2.8,0,5.2,0,7.9,0c0.2-2.8,0.3-5.3,0.5-8.1c22.6,0,44.9,0,67.5,0c0,2.9,0,5.4,0,8.5
			c2.8,0,5.4,0,8.2,0c0,8.4,0,16.4,0,24.9c-5.6,0-11,0-16.3,0c0,17.1,0,33.7,0,50.3c-11.3,0-22.6,0-33.9,0c0-2.8,0-5.5,0-8.4
			c-3.2-0.2-5.8-0.4-8.8-0.6c0-16.7,0-33.1,0-49.6c-3,0-5.5,0-8.1,0c0,19.7,0,39.1,0,58.5c-11.3,0-22.6,0-33.9,0c0-2.7,0-5.5,0-8.4
			c-3,0-5.6,0-8.8,0c0.3,3,0.6,5.7,0.8,8.4c-11.3,0-22.6,0-33.9,0c-0.2-2.6-0.3-5.2-0.5-8c-2.8,0-5.4,0-8.5,0c0,2.8,0,5.4,0,8
			c-19.6,0-39.2,0-58.8,0c0-2.7,0-5.4,0-8.4c-3.2,0-5.9,0-9,0c0,2.9,0,5.7,0,8.4c-22.6,0-45.2,0-67.8,0c0.3-2.8,0.6-5.5,0.9-8.4
			c-3.5-0.2-6.1-0.4-9-0.6c0-5.7,0-10.9,0-15.8c-11.4,0-22.4,0-34.1,0C41.9,67.8,42.3,75.9,42.7,84z M286.7,67c0-16.9,0-33.4,0-50.1
			c-2.9-0.1-5.4-0.3-8.1-0.4c-0.1-2.8-0.3-5.2-0.4-7.8c-14,0-27.7,0-41.7,0c-0.2,2.7-0.3,5.3-0.5,8.2c-2.7,0-5.1,0-7.6,0
			c0,16.9,0,33.4,0,50.1c5.5,0,10.8,0,16.5,0c0-5.6,0-10.9,0-16.2c8.7,0,16.9,0,25.4,0c0,5.6,0,10.8,0,16.2
			C275.8,67,281,67,286.7,67z M152.1,16.7c0,14.2,0,27.8,0,41.7c2.8,0.2,5.4,0.4,8.1,0.6c0.2,2.8,0.3,5.4,0.4,7.9
			c14.1,0,27.8,0,42,0c0-2.8,0-5.3,0-8c3.1-0.2,5.7-0.3,8.2-0.5c0-14.1,0-27.7,0-41.5c-2.8-0.1-5.4-0.3-8.5-0.4c0-2.8,0-5.4,0-7.7
			c-14.3,0-27.9,0-42,0c0,2.8,0,5.2,0,7.9C157.4,16.7,154.9,16.7,152.1,16.7z M8.6,8.7c0,19.6,0,38.9,0,58.2c5.6,0,10.9,0,16.7,0
			c0-8.4,0-16.5,0-25.1c11.4,0,22.3,0,33.3,0c0-2.9,0-5.3,0-8.2c-11.1,0-22,0-33.2,0c0-5.8,0-11.1,0-17c14.1,0,27.9,0,41.7,0
			c0-2.9,0-5.3,0-7.9C47.5,8.7,28.2,8.7,8.6,8.7z M304.1,16.9c5.8,0,11,0,16.8,0c0,16.9,0,33.4,0,50c5.7,0,11,0,16.8,0
			c0-16.8,0-33.3,0-50.3c5.9,0,11.3,0,16.5,0c0-2.9,0-5.3,0-7.9c-16.9,0-33.4,0-50.1,0C304.1,11.4,304.1,13.8,304.1,16.9z M84.7,8.7
			c0,19.6,0,38.9,0,58.2c16.8,0,33.3,0,49.8,0c0-2.8,0-5.4,0-8.4c-11.2,0-22.1,0-33.4,0c0-16.9,0-33.2,0-49.8
			C95.4,8.7,90.3,8.7,84.7,8.7z"/>
		<path class="st1" d="M286.7,67c-5.6,0-10.9,0-16.5,0c0-5.4,0-10.6,0-16.2c-8.5,0-16.6,0-25.4,0c0,5.3,0,10.6,0,16.2
			c-5.8,0-11,0-16.5,0c0-16.6,0-33.1,0-50.1c2.5,0,4.9,0,7.6,0c0.2-2.9,0.3-5.4,0.5-8.2c14,0,27.6,0,41.7,0c0.1,2.6,0.3,5,0.4,7.8
			c2.7,0.1,5.3,0.3,8.1,0.4C286.7,33.6,286.7,50.1,286.7,67z M245.2,16.9c0,8.6,0,16.7,0,24.6c8.4,0,16.5,0,24.4,0
			c0-8.5,0-16.5,0-24.6C261.3,16.9,253.4,16.9,245.2,16.9z"/>
		<path class="st1" d="M152.1,16.7c2.9,0,5.3,0,8.2,0c0-2.7,0-5.1,0-7.9c14.1,0,27.8,0,42,0c0,2.4,0,4.9,0,7.7
			c3.1,0.1,5.7,0.3,8.5,0.4c0,13.8,0,27.4,0,41.5c-2.5,0.1-5.1,0.3-8.2,0.5c0,2.7,0,5.2,0,8c-14.2,0-27.9,0-42,0
			c-0.1-2.6-0.3-5.1-0.4-7.9c-2.7-0.2-5.3-0.4-8.1-0.6C152.1,44.6,152.1,30.9,152.1,16.7z M193.7,58.6c0-14.2,0-27.9,0-41.5
			c-8.4,0-16.5,0-24.6,0c0,13.9,0,27.6,0,41.5C177.5,58.6,185.4,58.6,193.7,58.6z"/>
		<path class="st1" d="M8.6,8.7c19.5,0,38.9,0,58.5,0c0,2.6,0,5,0,7.9c-13.8,0-27.6,0-41.7,0c0,5.9,0,11.2,0,17
			c11.2,0,22.1,0,33.2,0c0,2.8,0,5.2,0,8.2c-11,0-21.9,0-33.3,0c0,8.7,0,16.8,0,25.1c-5.8,0-11.1,0-16.7,0
			C8.6,47.6,8.6,28.3,8.6,8.7z"/>
		<path class="st1" d="M304.1,16.9c0-3.1,0-5.5,0-8.2c16.7,0,33.2,0,50.1,0c0,2.6,0,5,0,7.9c-5.3,0-10.6,0-16.5,0
			c0,17,0,33.6,0,50.3c-5.8,0-11,0-16.8,0c0-16.6,0-33.2,0-50C315.1,16.9,309.9,16.9,304.1,16.9z"/>
		<path class="st1" d="M84.7,8.7c5.6,0,10.8,0,16.4,0c0,16.5,0,32.9,0,49.8c11.3,0,22.2,0,33.4,0c0,3.1,0,5.6,0,8.4
			c-16.5,0-33,0-49.8,0C84.7,47.6,84.7,28.3,84.7,8.7z"/>
		<path class="st0" d="M245.2,16.9c8.2,0,16.1,0,24.4,0c0,8.1,0,16.2,0,24.6c-8,0-16,0-24.4,0C245.2,33.6,245.2,25.6,245.2,16.9z"/>
		<path class="st0" d="M193.7,58.6c-8.3,0-16.2,0-24.6,0c0-13.8,0-27.5,0-41.5c8.1,0,16.1,0,24.6,0
			C193.7,30.6,193.7,44.3,193.7,58.6z"/>
	</g>
</g>
</svg>
