<?xml version="1.0" encoding="utf-8"?>
<!-- Generator: Adobe Illustrator 24.1.0, SVG Export Plug-In . SVG Version: 6.00 Build 0)  -->
<svg version="1.1" id="Layer_1" xmlns="http://www.w3.org/2000/svg" xmlns:xlink="http://www.w3.org/1999/xlink" x="0px" y="0px"
	 viewBox="0 0 481.7 180.8" style="enable-background:new 0 0 481.7 180.8;" xml:space="preserve">
<style type="text/css">
	.st0{fill:#0E4284;}
	.st1{fill:#FBFBFC;}
	.st2{fill:#0F4284;}
</style>
<g>
	<g>
		<path class="st0" d="M371.7,180.8c-11.3,0-22.6,0-33.9,0c0-2.8,0-5.5,0-8.4c-3.2-0.2-5.8-0.4-8.8-0.5c0-13.8,0-27.5,0-41.2
			c-2.9,0-5.5,0-8.2,0c0,16.9,0,33.5,0,50.1c-11.3,0-22.6,0-33.9,0c0-2.7,0-5.5,0-8.5c-3-0.1-5.6-0.3-8.6-0.4c0-16.9,0-33.2,0-49.7
			c-3,0-5.6,0-8.4,0c0,19.8,0,39.2,0,58.6c-11.3,0-22.6,0-33.9,0c0-2.7,0-5.5,0-8.4c-2.8-0.2-5.4-0.3-7.9-0.5
			c-0.1-2.9-0.3-5.3-0.4-7.6c-11.4,0-22.4,0-33.6,0c0,5.7,0,11.1,0,16.5c-22.6,0-45.2,0-67.9,0c0-2.7,0-5.5,0-8.4c-2.8,0-5.3,0-8,0
			c0,2.9,0,5.7,0,8.4c-11.3,0-22.6,0-33.9,0c0-2.7,0-5.4,0-8c-3.3,0-5.7,0-8.4,0c-0.2,2.8-0.4,5.4-0.6,8c-19.6,0-39.3,0-58.9,0
			c0-2.7,0-5.5,0-8.5c-3-0.1-5.5-0.3-8-0.4c-0.2-3-0.3-5.4-0.4-7.8c-3-0.1-5.6-0.3-8-0.4c0-19.7,0-38.9,0-58.2
			c2.9-0.1,5.5-0.3,8.5-0.4c0-3,0-5.5,0-8.2c19.8,0,39.1,0,59.1,0c0,2.9,0,5.6,0,8.2c5.8,0,11.1,0,16.6,0c0.1-2.8,0.2-5.4,0.4-8
			c19.7,0,39.2,0,59.1,0c0,2.9,0,5.5,0,8.1c2.7,0,5,0,7.4,0c0.2-2.9,0.3-5.6,0.4-8.1c22.9,0,45.2,0,67.7,0c0.2,2.9,0.3,5.4,0.5,8
			c2.9,0,5.5,0,8.5,0c0-2.9,0-5.4,0-8.2c33.8,0,67.2,0,100.8,0c0.2,2.6,0.4,5.2,0.6,7.8c2.9,0,5.5,0,8.4,0c0-2.7,0-5.1,0-7.6
			c19.9,0,39.4,0,59.2,0c0,2.9,0,5.5,0,8.1c2.7,0,5,0,7.4,0c0.2-2.9,0.3-5.6,0.5-8.2c11.5,0,22.6,0,34,0c0,2.9,0,5.4,0,8.2
			c2.9,0.1,5.5,0.2,8.5,0.4c0,13.9,0,27.5,0,41.6c8.7,0,16.9,0,25.5,0c0,2.9,0,5.4,0,8.3c3.1-0.2,5.9-0.3,8.6-0.5
			c0,8.6,0,17.1,0,25.7c-33.9,0-67.9,0-101.8,0c0-2.7,0-5.4,0-8.4c-2.9,0-5.4,0-8.4,0C371.4,175.4,371.6,178.1,371.7,180.8z
			 M101.2,163.8c0-5.6,0-10.9,0-16.3c8.6,0,16.6,0,25.2,0c0,5.6,0,10.9,0,16.3c5.9,0,11.3,0,16.5,0c0-16.9,0-33.4,0-50.2
			c-2.8,0-5.2,0-7.8,0c-0.2-2.8-0.4-5.4-0.5-7.9c-14.3,0-28,0-41.8,0c-0.2,2.8-0.3,5.2-0.4,7.8c-2.7,0.2-5.3,0.3-7.7,0.5
			c0,16.9,0,33.5,0,50C90.2,163.8,95.5,163.8,101.2,163.8z M354.8,163.8c0-5.8,0-11,0-16.4c8.4,0,16.5,0,25,0c0,5.5,0,10.9,0,16.3
			c5.9,0,11.2,0,16.6,0c0-16.8,0-33.4,0-50.2c-2.8,0-5.2,0-7.8,0c-0.2-2.8-0.4-5.4-0.7-8c-14.1,0-27.9,0-41.7,0
			c-0.2,2.8-0.4,5.3-0.6,7.9c-2.8,0.1-5.2,0.3-7.7,0.4c0,16.9,0,33.4,0,50C343.6,163.8,348.8,163.8,354.8,163.8z M160.5,105.4
			c0,19.7,0,39,0,58.3c5.7,0,11.1,0,16.9,0c0-5.7,0-11,0-16.7c11.4,0,22.3,0,33.6,0c0-2.9,0-5.5,0-8.1c2.9-0.2,5.4-0.3,7.9-0.4
			c0-8.4,0-16.5,0-25c-2.8,0-5.2,0-8.2,0c0-2.9,0-5.4,0-8.1C193.8,105.4,177.4,105.4,160.5,105.4z M58.5,105.5c-14,0-27.7,0-41.7,0
			c-0.2,2.7-0.3,5.3-0.5,8.1c-2.7,0-5.2,0-7.7,0c0,14.1,0,27.8,0,41.6c2.8,0.2,5.2,0.3,7.8,0.5c0.1,2.8,0.3,5.4,0.4,8
			c14.1,0,27.9,0,41.8,0c0.2-2.8,0.3-5.3,0.5-8c3-0.2,5.4-0.3,8-0.5c0-2.7,0-5.2,0-7.8c-5.7,0-11.1,0-16.8,0c0,2.7,0,5.1,0,7.8
			c-8.4,0-16.5,0-24.8,0c0-13.9,0-27.6,0-41.5c8.4,0,16.5,0,24.7,0c0.1,2.7,0.3,5.3,0.4,7.7c5.8,0,11.2,0,16.5,0c0-2.8,0-5.2,0-7.8
			c-2.8-0.1-5.4-0.3-8.1-0.4C58.8,110.6,58.6,108.1,58.5,105.5z M464,155.4c-11.2,0-22.2,0-33.6,0c0-17,0-33.4,0-49.9
			c-5.8,0-11.1,0-16.6,0c0,19.6,0,38.9,0,58.1c16.9,0,33.6,0,50.2,0C464,160.9,464,158.5,464,155.4z M286.8,163.6c6,0,11.4,0,17.2,0
			c0-16.9,0-33.4,0-50.2c5.8,0,11.1,0,16.5,0c0-2.7,0-5.1,0-7.9c-16.8,0-33.5,0-50.2,0c0,2.8,0,5.3,0,8.2c5.6,0,10.9,0,16.4,0
			C286.8,130.5,286.8,146.9,286.8,163.6z M236.6,105.5c0,19.6,0,38.9,0,58.3c5.6,0,10.9,0,16.3,0c0-19.6,0-38.9,0-58.3
			C247.2,105.5,242,105.5,236.6,105.5z"/>
		<path class="st1" d="M101.2,163.8c-5.7,0-11,0-16.6,0c0-16.5,0-33,0-50c2.5-0.1,5-0.3,7.7-0.5c0.1-2.6,0.3-5,0.4-7.8
			c13.9,0,27.6,0,41.8,0c0.2,2.5,0.3,5,0.5,7.9c2.6,0,5,0,7.8,0c0,16.8,0,33.4,0,50.2c-5.3,0-10.7,0-16.5,0c0-5.4,0-10.7,0-16.3
			c-8.6,0-16.6,0-25.2,0C101.2,152.9,101.2,158.2,101.2,163.8z M126.1,113.8c-8.6,0-16.6,0-24.6,0c0,8.4,0,16.5,0,24.5
			c8.4,0,16.4,0,24.6,0C126.1,130.1,126.1,122.1,126.1,113.8z"/>
		<path class="st1" d="M354.8,163.8c-5.9,0-11.2,0-16.8,0c0-16.6,0-33.1,0-50c2.4-0.1,4.8-0.2,7.7-0.4c0.2-2.5,0.4-5.1,0.6-7.9
			c13.8,0,27.6,0,41.7,0c0.2,2.6,0.4,5.2,0.7,8c2.6,0,5.1,0,7.8,0c0,16.8,0,33.4,0,50.2c-5.4,0-10.7,0-16.6,0c0-5.4,0-10.8,0-16.3
			c-8.5,0-16.6,0-25,0C354.8,152.8,354.8,158,354.8,163.8z M379.5,113.8c-8.4,0-16.5,0-24.6,0c0,8.3,0,16.5,0,24.6
			c8.3,0,16.4,0,24.6,0C379.5,130.2,379.5,122.2,379.5,113.8z"/>
		<path class="st1" d="M160.5,105.4c16.9,0,33.3,0,50.3,0c0,2.7,0,5.2,0,8.1c3,0,5.4,0,8.2,0c0,8.5,0,16.6,0,25
			c-2.5,0.1-5,0.3-7.9,0.4c0,2.6,0,5.2,0,8.1c-11.4,0-22.3,0-33.6,0c0,5.7,0,11,0,16.7c-5.8,0-11.2,0-16.9,0
			C160.5,144.4,160.5,125.1,160.5,105.4z M177.4,138.4c8.4,0,16.5,0,24.7,0c0-8.4,0-16.5,0-24.6c-8.4,0-16.4,0-24.7,0
			C177.4,122,177.4,130,177.4,138.4z"/>
		<path class="st1" d="M58.5,105.5c0.2,2.6,0.3,5.1,0.5,7.8c2.7,0.1,5.3,0.3,8.1,0.4c0,2.5,0,4.9,0,7.8c-5.3,0-10.7,0-16.5,0
			c-0.1-2.4-0.3-4.9-0.4-7.7c-8.3,0-16.3,0-24.7,0c0,13.8,0,27.5,0,41.5c8.3,0,16.4,0,24.8,0c0-2.6,0-5.1,0-7.8c5.7,0,11.1,0,16.8,0
			c0,2.6,0,5.1,0,7.8c-2.6,0.2-5.1,0.3-8,0.5c-0.2,2.7-0.3,5.2-0.5,8c-13.9,0-27.6,0-41.8,0c-0.1-2.6-0.2-5.1-0.4-8
			c-2.6-0.2-5-0.3-7.8-0.5c0-13.8,0-27.6,0-41.6c2.5,0,4.9,0,7.7,0c0.2-2.9,0.4-5.4,0.5-8.1C30.8,105.5,44.4,105.5,58.5,105.5z"/>
		<path class="st1" d="M464,155.4c0,3,0,5.4,0,8.2c-16.6,0-33.3,0-50.2,0c0-19.3,0-38.6,0-58.1c5.5,0,10.8,0,16.6,0
			c0,16.6,0,32.9,0,49.9C441.9,155.4,452.9,155.4,464,155.4z"/>
		<path class="st1" d="M286.8,163.6c0-16.8,0-33.2,0-49.9c-5.5,0-10.8,0-16.4,0c0-2.8,0-5.3,0-8.2c16.7,0,33.3,0,50.2,0
			c0,2.8,0,5.2,0,7.9c-5.4,0-10.7,0-16.5,0c0,16.8,0,33.3,0,50.2C298.2,163.6,292.8,163.6,286.8,163.6z"/>
		<path class="st1" d="M236.6,105.5c5.4,0,10.7,0,16.3,0c0,19.4,0,38.7,0,58.3c-5.4,0-10.6,0-16.3,0
			C236.6,144.4,236.6,125.1,236.6,105.5z"/>
		<path class="st0" d="M126.1,113.8c0,8.2,0,16.2,0,24.5c-8.2,0-16.2,0-24.6,0c0-8,0-16.1,0-24.5
			C109.5,113.8,117.6,113.8,126.1,113.8z"/>
		<path class="st0" d="M379.5,113.8c0,8.4,0,16.4,0,24.6c-8.2,0-16.3,0-24.6,0c0-8.2,0-16.3,0-24.6
			C363.1,113.8,371.1,113.8,379.5,113.8z"/>
		<path class="st0" d="M177.4,138.4c0-8.4,0-16.4,0-24.6c8.3,0,16.3,0,24.7,0c0,8.2,0,16.2,0,24.6
			C193.8,138.4,185.8,138.4,177.4,138.4z"/>
	</g>
</g>
<g>
	<g>
		<path class="st2" d="M41.5,84.9c-11.6,0-23.3,0-34.9,0c0.2-2.7,0.4-5.4,0.5-8.4c-3.2-0.2-5.7-0.4-8.3-0.6c0-25.1,0-49.9,0-74.9
			c36.6,0,72.9,0,109.5,0c0,2.9,0,5.6,0,8.3c2.9,0.1,5.5,0.2,8.5,0.4c0,14,0,27.6,0,41.2c8.7,0,16.9,0,25.5,0c0-13.9,0-27.5,0-41.3
			c2.9-0.1,5.5-0.3,8.5-0.4c0-3.1,0-5.6,0-8.1c19.9,0,39.3,0,59.1,0c0,2.9,0,5.4,0,7.9c5.8,0,11.2,0,16.6,0c0.2-3,0.3-5.5,0.5-7.9
			c19.8,0,39.2,0,58.9,0c0,2.9,0,5.5,0,8.1c2.8,0,5.2,0,7.9,0c0.2-2.8,0.3-5.3,0.5-8.1c22.6,0,44.9,0,67.5,0c0,2.9,0,5.4,0,8.5
			c2.8,0,5.4,0,8.2,0c0,8.4,0,16.4,0,24.9c-5.6,0-11,0-16.3,0c0,17.1,0,33.7,0,50.3c-11.3,0-22.6,0-33.9,0c0-2.8,0-5.5,0-8.4
			c-3.2-0.2-5.8-0.4-8.8-0.6c0-16.7,0-33.1,0-49.6c-3,0-5.5,0-8.1,0c0,19.7,0,39.1,0,58.5c-11.3,0-22.6,0-33.9,0c0-2.7,0-5.5,0-8.4
			c-3,0-5.6,0-8.8,0c0.3,3,0.6,5.7,0.8,8.4c-11.3,0-22.6,0-33.9,0c-0.2-2.6-0.3-5.2-0.5-8c-2.8,0-5.4,0-8.5,0c0,2.8,0,5.4,0,8
			c-19.6,0-39.2,0-58.8,0c0-2.7,0-5.4,0-8.4c-3.2,0-5.9,0-9,0c0,2.9,0,5.7,0,8.4c-22.6,0-45.2,0-67.8,0c0.3-2.8,0.6-5.5,0.9-8.4
			c-3.5-0.2-6.1-0.4-9-0.6c0-5.7,0-10.9,0-15.8c-11.4,0-22.4,0-34.1,0C40.7,68.6,41.1,76.8,41.5,84.9z M285.5,67.9
			c0-16.9,0-33.4,0-50.1c-2.9-0.1-5.4-0.3-8.1-0.4c-0.1-2.8-0.3-5.2-0.4-7.8c-14,0-27.7,0-41.7,0c-0.2,2.7-0.3,5.3-0.5,8.2
			c-2.7,0-5.1,0-7.6,0c0,16.9,0,33.4,0,50.1c5.5,0,10.8,0,16.5,0c0-5.6,0-10.9,0-16.2c8.7,0,16.9,0,25.4,0c0,5.6,0,10.8,0,16.2
			C274.6,67.9,279.8,67.9,285.5,67.9z M150.9,17.6c0,14.2,0,27.8,0,41.7c2.8,0.2,5.4,0.4,8.1,0.6c0.2,2.8,0.3,5.4,0.4,7.9
			c14.1,0,27.8,0,42,0c0-2.8,0-5.3,0-8c3.1-0.2,5.7-0.3,8.2-0.5c0-14.1,0-27.7,0-41.5c-2.8-0.1-5.4-0.3-8.5-0.4c0-2.8,0-5.4,0-7.7
			c-14.3,0-27.9,0-42,0c0,2.8,0,5.2,0,7.9C156.2,17.6,153.7,17.6,150.9,17.6z M7.4,9.6c0,19.6,0,38.9,0,58.2c5.6,0,10.9,0,16.7,0
			c0-8.4,0-16.5,0-25.1c11.4,0,22.3,0,33.3,0c0-2.9,0-5.3,0-8.2c-11.1,0-22,0-33.2,0c0-5.8,0-11.1,0-17c14.1,0,27.9,0,41.7,0
			c0-2.9,0-5.3,0-7.9C46.3,9.6,27,9.6,7.4,9.6z M302.9,17.8c5.8,0,11,0,16.8,0c0,16.9,0,33.4,0,50c5.7,0,11,0,16.8,0
			c0-16.8,0-33.3,0-50.3c5.9,0,11.3,0,16.5,0c0-2.9,0-5.3,0-7.9c-16.9,0-33.4,0-50.1,0C302.9,12.3,302.9,14.7,302.9,17.8z M83.5,9.6
			c0,19.6,0,38.9,0,58.2c16.8,0,33.3,0,49.8,0c0-2.8,0-5.4,0-8.4c-11.2,0-22.1,0-33.4,0c0-16.9,0-33.2,0-49.8
			C94.2,9.6,89.1,9.6,83.5,9.6z"/>
		<path class="st1" d="M285.5,67.9c-5.6,0-10.9,0-16.5,0c0-5.4,0-10.6,0-16.2c-8.5,0-16.6,0-25.4,0c0,5.3,0,10.6,0,16.2
			c-5.8,0-11,0-16.5,0c0-16.6,0-33.1,0-50.1c2.5,0,4.9,0,7.6,0c0.2-2.9,0.3-5.4,0.5-8.2c14,0,27.6,0,41.7,0c0.1,2.6,0.3,5,0.4,7.8
			c2.7,0.1,5.3,0.3,8.1,0.4C285.5,34.4,285.5,51,285.5,67.9z M244,17.8c0,8.6,0,16.7,0,24.6c8.4,0,16.5,0,24.4,0
			c0-8.5,0-16.5,0-24.6C260.1,17.8,252.2,17.8,244,17.8z"/>
		<path class="st1" d="M150.9,17.6c2.9,0,5.3,0,8.2,0c0-2.7,0-5.1,0-7.9c14.1,0,27.8,0,42,0c0,2.4,0,4.9,0,7.7
			c3.1,0.1,5.7,0.3,8.5,0.4c0,13.8,0,27.4,0,41.5c-2.5,0.1-5.1,0.3-8.2,0.5c0,2.7,0,5.2,0,8c-14.2,0-27.9,0-42,0
			c-0.1-2.6-0.3-5.1-0.4-7.9c-2.7-0.2-5.3-0.4-8.1-0.6C150.9,45.4,150.9,31.8,150.9,17.6z M192.5,59.4c0-14.2,0-27.9,0-41.5
			c-8.4,0-16.5,0-24.6,0c0,13.9,0,27.6,0,41.5C176.3,59.4,184.2,59.4,192.5,59.4z"/>
		<path class="st1" d="M7.4,9.6c19.5,0,38.9,0,58.5,0c0,2.6,0,5,0,7.9c-13.8,0-27.6,0-41.7,0c0,5.9,0,11.2,0,17
			c11.2,0,22.1,0,33.2,0c0,2.8,0,5.2,0,8.2c-11,0-21.9,0-33.3,0c0,8.7,0,16.8,0,25.1c-5.8,0-11.1,0-16.7,0
			C7.4,48.5,7.4,29.2,7.4,9.6z"/>
		<path class="st1" d="M302.9,17.8c0-3.1,0-5.5,0-8.2c16.7,0,33.2,0,50.1,0c0,2.6,0,5,0,7.9c-5.3,0-10.6,0-16.5,0
			c0,17,0,33.6,0,50.3c-5.8,0-11,0-16.8,0c0-16.6,0-33.2,0-50C313.9,17.8,308.7,17.8,302.9,17.8z"/>
		<path class="st1" d="M83.5,9.6c5.6,0,10.8,0,16.4,0c0,16.5,0,32.9,0,49.8c11.3,0,22.2,0,33.4,0c0,3.1,0,5.6,0,8.4
			c-16.5,0-33,0-49.8,0C83.5,48.5,83.5,29.2,83.5,9.6z"/>
		<path class="st2" d="M244,17.8c8.2,0,16.1,0,24.4,0c0,8.1,0,16.2,0,24.6c-8,0-16,0-24.4,0C244,34.5,244,26.4,244,17.8z"/>
		<path class="st2" d="M192.5,59.4c-8.3,0-16.2,0-24.6,0c0-13.8,0-27.5,0-41.5c8.1,0,16.1,0,24.6,0
			C192.5,31.5,192.5,45.2,192.5,59.4z"/>
	</g>
</g>
</svg>
