<?xml version="1.0" encoding="utf-8"?>
<!-- Generator: Adobe Illustrator 24.1.0, SVG Export Plug-In . SVG Version: 6.00 Build 0)  -->
<svg version="1.1" id="Layer_1" xmlns="http://www.w3.org/2000/svg" xmlns:xlink="http://www.w3.org/1999/xlink" x="0px" y="0px"
	 viewBox="0 0 300 300" style="enable-background:new 0 0 300 300;" xml:space="preserve">
<style type="text/css">
	.st0{fill:#0D4184;}
	.st1{enable-background:new    ;}
	.st2{clip-path:url(#SVGID_2_);}
	.st3{clip-path:url(#SVGID_4_);}
	.st4{clip-path:url(#SVGID_8_);}
	.st5{clip-path:url(#SVGID_10_);}
	.st6{clip-path:url(#SVGID_14_);}
</style>
<path class="st0" d="M81.5,184.5c-97.2,3.3,140,107.9,56.8,107.9s-135-57.2-135-139.2S70.8,4.7,154,4.7S163.4,181.8,81.5,184.5z"/>
<g>
	<g>
		<g class="st1">
			<defs>
				<polygon id="SVGID_1_" class="st1" points="7,335.2 7.5,16.3 303,-25.2 302.5,293.7 				"/>
			</defs>
			<clipPath id="SVGID_2_">
				<use xlink:href="#SVGID_1_"  style="overflow:visible;"/>
			</clipPath>
			<g class="st2">
				<g>
					<g>
						<g>
							<g>
								<defs>
									<path id="SVGID_3_" d="M17.1,169.6C17.2,90,77.1,17.1,150.8,6.7c73.7-10.4,133.4,45.8,133.2,125.3
										c-0.1,79.6-60,152.5-133.8,162.9C76.6,305.3,16.9,249.2,17.1,169.6 M302.2-24.1L8.4,17.1l-0.6,317l293.7-41.3L302.2-24.1"
										/>
								</defs>
								<clipPath id="SVGID_4_">
									<use xlink:href="#SVGID_3_"  style="overflow:visible;"/>
								</clipPath>
								<g class="st3">
									<defs>
										<polyline id="SVGID_5_" points="302.5,293.7 7,335.2 7.5,16.3 303,-25.2 302.5,293.7 										"/>
									</defs>
									<clipPath id="SVGID_6_">
										<use xlink:href="#SVGID_5_"  style="overflow:visible;"/>
									</clipPath>
									<g style="clip-path:url(#SVGID_6_);">
										
											<image style="overflow:visible;" width="297" height="361" xlink:href="E1C25D83839D405A.png"  transform="matrix(1 0 0 1 6.956 -25.2331)">
										</image>
									</g>
								</g>
							</g>
							<g>
								<defs>
									<path id="SVGID_7_" d="M150.8,6.7c73.7-10.4,133.4,45.8,133.2,125.3c-0.1,79.6-60,152.5-133.8,162.9
										C76.6,305.3,16.9,249.2,17.1,169.6C17.2,90,77.1,17.1,150.8,6.7"/>
								</defs>
								<clipPath id="SVGID_8_">
									<use xlink:href="#SVGID_7_"  style="overflow:visible;"/>
								</clipPath>
								<g class="st4">
									<defs>
										<path id="SVGID_9_" d="M150.8,6.7C77.1,17.1,17.2,90,17.1,169.6c-0.1,79.6,59.5,135.7,133.2,125.3
											c73.7-10.4,133.6-83.3,133.8-162.9C284.2,52.5,224.6-3.6,150.8,6.7"/>
									</defs>
									<clipPath id="SVGID_10_">
										<use xlink:href="#SVGID_9_"  style="overflow:visible;"/>
									</clipPath>
									<g class="st5">
										<defs>
											<polyline id="SVGID_11_" points="284.1,276.4 16.6,314 17.2,25.4 284.6,-12.2 284.1,276.4 											"/>
										</defs>
										<clipPath id="SVGID_12_">
											<use xlink:href="#SVGID_11_"  style="overflow:visible;"/>
										</clipPath>
										<g style="clip-path:url(#SVGID_12_);">
											
												<image style="overflow:visible;" width="268" height="327" xlink:href="E1C25D83839D405E.png"  transform="matrix(1 0 0 1 16.641 -12.2328)">
											</image>
										</g>
									</g>
								</g>
							</g>
						</g>
					</g>
				</g>
			</g>
		</g>
	</g>
</g>
<g>
	<g>
		<g class="st1">
			<defs>
				<polygon id="SVGID_13_" class="st1" points="82,257.3 82.3,82.9 242.1,60.4 241.8,234.8 				"/>
			</defs>
			<clipPath id="SVGID_14_">
				<use xlink:href="#SVGID_13_"  style="overflow:visible;"/>
			</clipPath>
			<g class="st6">
				<g>
					<g>
						<g>
							<path class="st0" d="M97.1,220.2c0.1-40.4,0.1-80.7,0.2-120.9c0-0.7-0.1-1.9,0-2.3c1.1-0.1,1.1-0.1,2.5-0.4
								c36.8-5.2,74.2-10.4,111.6-15.7c0,6.1,0,12.2,0,18.5c-26.5,3.7-53.1,7.5-79.8,11.2c0,11.7,0,23.2-0.1,35
								c21-3,41.7-5.9,62.9-8.8c0,6.2,0,12.2,0,18.3c-21.2,3-41.9,5.9-63.1,8.9c0,17.1-0.1,34.2-0.1,51.3
								C119.8,217,108.6,218.6,97.1,220.2 M227.1,62.6c-48.4,6.8-96.7,13.6-144.7,20.3c-0.1,52.2-0.2,104.2-0.3,156.5
								c5.5-0.8,11-1.6,16.6-2.3c0,6.1,0,11.9,0,17.9c21.2-3,42-5.9,63.3-8.9c0-17.7,0.1-35.3,0.1-53.1c22-3.1,43.3-6.1,65.1-9.1
								c0-17.3,0.1-34.2,0.1-51.5c5.2-0.7,10.1-1.4,14.9-2.1c0-17.5,0.1-34.6,0.1-51.9c-5.2,0.7-9.9,1.4-15,2.1
								C227,74.3,227,68.3,227.1,62.6"/>
						</g>
					</g>
				</g>
			</g>
		</g>
	</g>
</g>
</svg>
