<?xml version="1.0" encoding="utf-8"?>
<!-- Generator: Adobe Illustrator 24.1.0, SVG Export Plug-In . SVG Version: 6.00 Build 0)  -->
<svg version="1.1" id="Layer_1" xmlns="http://www.w3.org/2000/svg" xmlns:xlink="http://www.w3.org/1999/xlink" x="0px" y="0px"
	 viewBox="0 0 160 168.7" style="enable-background:new 0 0 160 168.7;" xml:space="preserve">
<style type="text/css">
	.st0{fill:#518EA7;}
	.st1{fill:#589DB8;}
	.st2{fill:#90CCDA;}
	.st3{fill:#C2E6F9;}
	.st4{fill:#71B6C9;}
	.st5{fill:#FDFEFD;}
	.st6{fill:#0D4183;}
	.st7{fill:#FEFEFE;}
</style>
<g>
	<g>
		<path class="st0" d="M83.3,166.9c-2.1,2.3-4.3,2.1-6.9,0.7c-24.3-12-48.5-23.8-72.9-35.7c-2.2-1-3.6-2.2-3.5-5
			C0.2,105.6,0.2,84.3,0.2,63c7,2.5,13.4,6.5,20.3,9.3c13.2,5.5,26,12,39.3,17.6c6.6,2.8,12.6,7.3,20.2,7.8c0,0.3,0,0.6,0.1,1
			c0,21.1,0,42.1,0,63.2C80,164.2,79.4,167,83.3,166.9z"/>
		<path class="st1" d="M83.3,166.9c-3.9,0.1-3.3-2.7-3.3-5c0-21.1,0-42.1,0-63.2c15.4-6.8,30.8-13.6,46.2-20.5
			c10.8-4.8,21.2-10.4,32.4-14.2c0.4,0.4,0.8,0.7,1.2,1.2c0,0.6,0,1.3,0,2c-1.5,1.2-1.2,2.8-1.2,4.3c-0.1,19.3-0.3,38.5-0.3,57.8
			c0,0.3,0.7,0.5,1.2,0.8c-16.1,8-32,16.1-48.1,24c-8,3.9-16.1,7.7-24,11.4C85.3,163.9,84.1,165.1,83.3,166.9L83.3,166.9z"/>
		<path class="st2" d="M103.4,30.4c17.1,6.5,34.3,13,51.4,19.5c1.8,0.6,3.8,0.7,5,2.5c-14.6,5-28.2,12.1-42.5,17.8
			C104.9,75.5,92.5,80.8,80,86.1c-8.8-3.7-17.6-7.5-26.4-11.1c-17.8-7.5-35.6-15-53.4-22.5c7.3-4.4,15.5-6.7,23.4-10
			c10.9-4.5,21.9-8.9,33-13.2c1.5-0.5,3-0.8,4.5-1.2c0,5-0.1,10.1,0,15.1c0,1.5-0.4,3.3,1.7,3.9c11.5,3.3,22.7,7.7,33.7,12.5
			c2.5,1,4.8,0.4,4.4-3.4C100.1,47.4,102.9,39,103.4,30.4z M56.2,63.9c1.2-1.4,4.9,0.1,4.6-3.3c-0.3-4.1-4.5-3.1-7-3.6
			C52,56.8,48.3,57,48.9,60C49.5,63.2,52.9,63.4,56.2,63.9z"/>
		<path class="st3" d="M103.4,30.4c-0.5,8.6-3.4,16.9-2.4,25.6c0.4,3.8-1.9,4.4-4.4,3.4c-11-4.8-22.2-9.2-33.7-12.5
			c-2.1-0.6-1.7-2.4-1.7-3.9c0-5,0-10.1,0-15.1c3.4-5.1,2.5-11.3,3.9-17c3-12.6,2.6-12.6,14.7-8.4c8.8,3.1,17.6,6.1,26.7,8.8
			c2.5,0.7,3,1.5,1.8,3.8C105.7,20,104.5,25.2,103.4,30.4z"/>
		<path class="st4" d="M80,86.1c12.5-5.2,24.9-10.6,37.4-15.7c14.3-5.9,27.9-12.9,42.5-17.8c0,3.5,0,6.9,0,10.5
			c-0.4,0.4-0.7,0.7-1.2,1.2c-11.2,3.8-21.6,9.3-32.4,14.2C110.9,85.1,95.5,92,80.1,98.8c0-0.3-0.1-0.6-0.1-1
			C79.9,93.8,80,90,80,86.1z"/>
		<path class="st1" d="M80,86.1c0,3.9,0,7.7,0,11.5c-7.6-0.4-13.6-4.9-20.2-7.8c-13.1-5.7-25.9-12.2-39.3-17.6
			c-6.8-2.8-13.2-6.7-20.3-9.3c0-3.5,0-7,0-10.5c17.7,7.5,35.6,15,53.3,22.5C62.4,78.6,71.2,82.4,80,86.1z"/>
		<path class="st0" d="M159.5,130.2c-0.4-0.3-1.2-0.5-1.2-0.8c0.1-19.3,0.2-38.5,0.3-57.8c0-1.5-0.4-3.1,1.2-4.3
			c0.1,20.4,0.1,40.7,0.2,61C160,128.8,159.7,129.4,159.5,130.2z"/>
		<path class="st0" d="M83.2,166.9c0.9-1.8,2-3,4.1-1.4c-0.2,0.2-0.5,0.3-0.8,0.3c-0.4,0.2-0.8,0.5-1.3,0.7
			C84.6,166.7,83.9,166.8,83.2,166.9z"/>
		<path class="st0" d="M158.6,64c0.4-0.4,0.7-0.7,1.2-1.2c0,0.7,0,1.5,0,2.2C159.5,64.8,159.1,64.3,158.6,64z"/>
		<path class="st1" d="M85.3,166.6c0.4-0.2,0.8-0.5,1.3-0.7C86.1,166.1,85.7,166.4,85.3,166.6z"/>
		<path class="st5" d="M56.2,63.9c-3.3-0.5-6.7-0.7-7.2-3.8C48.4,57,51.4,57,51.4,57c2.7-0.2,10-0.6,10.3,3.5
			C62,63.7,58,64,56.2,63.9z"/>
	</g>
</g>
<g>
	<g>
		<g>
			<path class="st6" d="M68.7,5.2c10,2.6,19.9,7.2,29.9,9.5c-0.2,1.1-0.4,2.1-0.6,3.1c0,0.2,0,0.2-0.1,0.3c0.9,0.2,2.2,0.5,3.2,0.7
				c-0.1,0,0.3,0.1,0.3,0.1c0,0.1,0,0,0,0.2c-0.6,3.1-1.2,6.4-1.8,9.7c0,0,0,0,0,0c0,0,0,0,0,0c-1.1-0.2-2.2-0.5-3.4-0.8
				c0,0.1,0,0.2-0.1,0.3c-0.6,3-1.1,6.1-1.7,9.1c0,0.2-0.1,0.4-0.1,0.6c-4.4-1.3-8.7-2.8-13.1-4.4c-0.1,0-0.3-0.1-0.3-0.1
				c0,0.1,0,0,0,0.1c-0.6,3.1-1.2,6.3-1.8,9.4c-4.4-1.6-8.9-3-13.4-4c0.2-1.1,0.4-2.3,0.6-3.4c-1.1-0.2-2.1-0.5-3.1-0.6
				C65.1,25,66.9,15,68.7,5.2z M67.3,32.5c2.1,0.5,4.2,1.1,6.3,1.8c0.6-3.2,1.2-6.4,1.8-9.5c0.2-0.1,0.3-0.2,0.5-0.3
				c4.3,1.4,8.7,3.1,13,4.5c0.2-1,0.4-2,0.6-3c-4.5-1.5-8.9-3.1-13.4-4.6c0.4-2.2,0.8-4.4,1.2-6.5c5.6,1.9,11.3,4.1,16.9,5.7
				c0.2-1,0.4-2.1,0.6-3.1c-7.7-2.2-15.5-5.4-23.2-7.7C70.2,17.2,68.7,24.8,67.3,32.5z"/>
			<path class="st7" d="M67.3,32.5c1.4-7.7,2.8-15.2,4.2-22.9c7.7,2.3,15.5,5.5,23.2,7.7c-0.2,1-0.4,2.1-0.6,3.1
				c-5.6-1.6-11.2-3.8-16.9-5.7c-0.4,2.2-0.8,4.4-1.2,6.5c4.4,1.5,8.9,3.2,13.4,4.6c-0.2,1-0.4,2-0.6,3c-4.4-1.5-8.7-3.1-13-4.5
				c-0.1,0.1-0.3,0.2-0.5,0.3c-0.6,3.1-1.2,6.3-1.8,9.5C71.5,33.6,69.5,33,67.3,32.5z"/>
		</g>
	</g>
</g>
</svg>
