<?xml version="1.0" encoding="utf-8"?>
<!-- Generator: Adobe Illustrator 24.1.0, SVG Export Plug-In . SVG Version: 6.00 Build 0)  -->
<svg version="1.1" id="Layer_1" xmlns="http://www.w3.org/2000/svg" xmlns:xlink="http://www.w3.org/1999/xlink" x="0px" y="0px"
	 viewBox="0 0 258 258" style="enable-background:new 0 0 258 258;" xml:space="preserve">
<style type="text/css">
	.st0{fill:#2F3030;}
	.st1{fill:#131313;}
	.st2{fill:#828384;}
	.st3{fill:#343535;}
	.st4{fill:#F28931;}
</style>
<g id="_x31_16-Ethereum">
	<g>
		<polygon class="st0" points="132.4,165.2 132.4,205.9 182.2,135 		"/>
		<polygon class="st0" points="180.4,131.6 132.4,50.9 132.4,109.6 		"/>
		<polygon class="st1" points="132.4,109.6 132.4,159.6 179.9,131.4 		"/>
		<polygon class="st2" points="84.3,131.6 132.4,50.9 132.4,109.6 		"/>
		<polygon class="st3" points="132.4,109.6 132.4,159.6 84.5,131.4 		"/>
		<polygon class="st2" points="132.2,165.2 132.2,205.9 82.2,135 		"/>
	</g>
</g>
<desc></desc>
<g id="Classic">
	<g id="Bitcoin" transform="translate(-328.000000, -409.000000)">
		<g transform="translate(300.000000, 381.000000)">
			<path class="st4" d="M190.1,33.4C121.9,15.1,51.5,55.6,33.4,123.9c-18.3,68.2,22.3,138.5,90.5,156.8s138.5-22.3,156.8-90.5
				S258.4,51.6,190.1,33.4z M215.1,141.6c-3.1,11.5-10.8,19.4-21.7,21.8c12.3,8.1,15.2,21.4,11.8,34.1
				c-4.7,16.3-18.8,25.4-32.9,26.1c-5.7,0.2-10.5-0.6-15.7-2c-3.3,12.1-4.9,18.2-4.9,18.2s-4.1-1.1-12.2-3.3l4.9-18.2l-12.8-3.4
				c-3.3,12.1-4.9,18.2-4.9,18.2s-4.1-1.1-12.2-3.3l4.9-18.2c-16.3-4.4-24.5-6.6-24.5-6.6s1.5-5.6,4.5-16.7l7.5,2
				c3.9,1,7.6-1.3,8.6-5l19.7-73.7c1-3.9-1.3-7.6-5-8.6c-5-1.3-7.5-2-7.5-2s1.5-5.6,4.5-16.7l24.5,6.6c3.3-12.1,4.9-18.2,4.9-18.2
				s4.1,1.1,12.2,3.3l-4.9,18.4l12.8,3.4c3.3-12.1,4.9-18.2,4.9-18.2s4.1,1.1,12.2,3.3l-5,18.5c6.2,1.9,10.9,4,15.3,7.4
				C213.9,115.9,218.7,128.1,215.1,141.6z"/>
		</g>
	</g>
</g>
</svg>
