<?xml version="1.0" encoding="utf-8"?>
<!-- Generator: Adobe Illustrator 24.1.0, SVG Export Plug-In . SVG Version: 6.00 Build 0)  -->
<svg version="1.1" id="Layer_1" xmlns="http://www.w3.org/2000/svg" xmlns:xlink="http://www.w3.org/1999/xlink" x="0px" y="0px"
	 viewBox="0 0 500 500" style="enable-background:new 0 0 500 500;" xml:space="preserve">
<style type="text/css">
	.st0{fill:#2B6DEE;}
	.st1{fill:#FDFDFE;}
</style>
<g>
	<g>
		<path class="st0" d="M226.6,0c13.7,0,27.4,0,41,0c5.6,1.8,11.4,1.6,17.1,2.4c58.5,8.7,108.3,34.4,148.6,77.7
			c37.1,39.9,58.7,87.2,65.1,141.4c0.4,3.6-0.2,7.4,1.7,10.8c0,14.4,0,28.6,0,43c-2.3,0.5-1.7,2.5-1.8,4
			c-1.8,15.4-5.1,30.5-9.7,45.2C459.7,418.4,376.1,487.5,279,498.3c-1.6,0.2-3.7-0.5-4.6,1.8c-16.6,0-33.2,0-49.8,0
			c-0.5-2.4-2.5-1.6-3.9-1.8c-11.6-1.3-23.2-3.5-34.5-6.4C86.3,465.3,13.7,381.2,1.6,278c-0.4-3.1,0.2-6.4-1.6-9.4c0-14,0-28,0-42
			c2.1-1.5,1.6-3.7,1.8-5.7c0.9-7.8,2.1-15.4,3.8-23.1c11.1-51.5,35.8-95.1,74.2-130.9c39.9-37,86.9-58.8,141.1-65.2
			C222.8,1.5,225.2,2.2,226.6,0z M93.7,247.9c0,29.6,0,59.2-0.1,88.9c0,3.2,0.8,5.3,3.8,6.9c15,8.4,30,17.1,44.8,25.8
			c2.6,1.6,4.5,1.5,7.1,0c15-8.8,30.1-17.5,45.2-26.1c2.6-1.5,3.4-3.3,3.4-6.3c-0.1-18.9-0.1-37.7-0.1-56.7c0-5.4,0.1-5.5,4.9-2.6
			c14.4,8.3,28.8,16.5,43.1,24.9c2.8,1.7,5.1,1.8,7.9,0c14.4-8.4,28.7-16.5,43.2-24.8c4.9-2.8,5-2.8,5,3c0,18.8,0.1,37.4-0.1,56.2
			c0,2.9,0.8,4.8,3.4,6.3c15.1,8.6,30.2,17.3,45.2,26.1c2.3,1.4,4.2,1.6,6.6,0.1C372,361,387,352.3,402,343.9c3-1.7,3.9-3.6,3.9-6.9
			c-0.1-59.2-0.1-118.5,0-177.7c0-3.2-1-5-3.7-6.5c-14.8-8.4-29.7-16.9-44.4-25.6c-2.7-1.7-4.8-1.7-7.5,0
			c-14.8,8.7-29.5,17.2-44.4,25.6c-3.1,1.8-4.1,3.9-4.1,7.3c0.2,16.3,0.1,32.5,0.1,48.8c0,6.3,0,6.3-5.5,3
			c-48.7-28.1-97.5-56.2-146.2-84.4c-3.1-1.9-5.5-2.1-8.8-0.1c-14.6,8.7-29.2,17.1-44,25.4c-2.9,1.7-3.9,3.5-3.9,6.8
			C93.8,189.1,93.7,218.5,93.7,247.9z"/>
		<path class="st1" d="M93.7,247.9c0-29.5,0.1-58.9-0.1-88.4c0-3.3,1-5.2,3.9-6.8c14.8-8.3,29.4-16.7,44-25.4c3.3-2,5.6-1.8,8.8,0.1
			c48.7,28.2,97.5,56.3,146.2,84.4c5.5,3.1,5.5,3.1,5.5-3c0-16.3,0.1-32.5-0.1-48.8c0-3.5,0.9-5.6,4.1-7.3
			c14.8-8.4,29.7-16.9,44.4-25.6c2.7-1.7,4.8-1.7,7.5,0c14.8,8.7,29.5,17.2,44.4,25.6c2.7,1.6,3.7,3.3,3.7,6.5
			c-0.1,59.2-0.1,118.5,0,177.7c0,3.3-0.9,5.3-3.9,6.9c-15,8.4-30,17.1-44.8,25.8c-2.4,1.5-4.3,1.3-6.6-0.1
			c-15-8.8-30.1-17.5-45.2-26.1c-2.6-1.5-3.4-3.3-3.4-6.3c0.1-18.8,0.1-37.4,0.1-56.2c0-5.9,0-5.9-5-3
			c-14.4,8.2-28.8,16.4-43.2,24.8c-2.9,1.7-5.1,1.7-7.9,0c-14.3-8.4-28.7-16.6-43.1-24.9c-4.8-2.7-4.9-2.7-4.9,2.6
			c0,18.9-0.1,37.7,0.1,56.7c0,2.9-0.7,4.8-3.4,6.3c-15.1,8.6-30.3,17.3-45.2,26.1c-2.5,1.5-4.5,1.6-7.1,0
			c-14.8-8.6-29.7-17.3-44.7-25.7c-3-1.7-3.8-3.7-3.8-6.9C93.8,307.2,93.7,277.5,93.7,247.9z"/>
	</g>
</g>
</svg>
