<?xml version="1.0" encoding="utf-8"?>
<!-- Generator: Adobe Illustrator 24.1.0, SVG Export Plug-In . SVG Version: 6.00 Build 0)  -->
<svg version="1.1" id="Layer_1" xmlns="http://www.w3.org/2000/svg" xmlns:xlink="http://www.w3.org/1999/xlink" x="0px" y="0px"
	 viewBox="0 0 135 85" style="enable-background:new 0 0 135 85;" xml:space="preserve">
<style type="text/css">
	.st0{fill:#0D4183;}
	.st1{fill:#FEFEFE;}
	.st2{fill:#144686;}
	.st3{fill:#F5F6F8;}
	.st4{fill:#0F4283;}
</style>
<g>
	<g>
		<path class="st0" d="M50.6,0c25.3,0,50.7,0,76.1,0c0,2.7,0,5.3,0,8c0,0.4,0,0.4,0,0.8c2.4,0,5.7,0,8.1,0c-0.2,0,0.8,0,0.8,0.1
			c0,0.2-0.1,0,0,0.4c0,8,0,16.3,0,24.7l-0.1,0.1h-0.1c-2.9,0-5.7,0-8.7,0c0,0.3,0,0.5,0,0.7c0,7.8,0,15.7,0,23.5c0,0.5,0,1,0,1.6
			c-11.2,0-22.2,0-33.4,0c-0.2,0-0.7,0.1-0.8,0c0,0.2,0,0,0,0.3c0,8.1,0,16.4,0,24.7c-11.3,0-22.7,0-34,0c0-2.9,0-5.9,0-8.8
			c-2.7,0-5.3,0-7.9,0C50.6,50.7,50.6,25.3,50.6,0z M59.5,67.9c5.4,0,10.7,0,16.1,0c0-8.4,0-16.7,0-24.9c0.4-0.4,0.7-0.7,1-1
			c11,0,22,0,33.1,0c0-2.6,0-5.3,0-7.9c-11.4,0-22.7,0-34,0c0-5.7,0-11.4,0-17c14.3,0,28.6,0,42.9,0c0-2.7,0-5.4,0-8.1
			C98.9,9,79.3,9,59.5,9C59.5,28.5,59.5,48.2,59.5,67.9z"/>
		<path class="st1" d="M59.5,67.9c0-19.7,0-39.3,0-59.1c19.6,0,39.3,0,59.1,0c0,2.7,0,5.4,0,8.1c-14.3,0-28.5,0-42.9,0
			c0,5.7,0,11.4,0,17c11.3,0,22.6,0,34,0c0,2.7,0,5.3,0,7.9c-11.1,0-22.1,0-33.1,0c-0.3,0.3-0.6,0.6-1,1c0,8.1,0,16.5,0,24.9
			C70.2,67.9,64.9,67.9,59.5,67.9z"/>
	</g>
</g>
<g>
	<g>
		<path class="st2" d="M50,35.3c-0.2,0-0.3,0-0.5,0c0,0,0,0.1,0,0.1h-4.8c-0.1-1.7-0.2-3.3-0.3-5H5.8c-0.2,1.5-0.4,3.1-0.7,5H0V80
			h5.1c0.3,1.6,0.5,3.2,0.8,4.9h22v-5.2h5.3c0.2,1.8,0.3,3.4,0.4,5.3h17V35.3c0,0-0.1,0-0.1,0C50.3,35.3,50.2,35.3,50,35.3z
			 M44.2,73.9H33.4V63.8H16.9v10.1h-11V41.3c1.5-0.1,2.9-0.2,4.6-0.3c0.3-1.8,0.5-3.4,0.8-5.3h27.6c0.1,1.7,0.3,3.2,0.3,4.8
			c1.8,0.3,3.3,0.4,5.1,0.7V73.9z"/>
		<path class="st3" d="M5.8,41.3c1.6-0.1,3-0.2,4.6-0.3c0.3-1.8,0.5-3.4,0.8-5.3c9.3,0,18.3,0,27.6,0c0.1,1.7,0.3,3.2,0.3,4.8
			c1.7,0.3,3.3,0.4,5.1,0.7c0,10.9,0,21.6,0,32.6c-3.5,0-6.9,0-10.8,0c0-3.3,0-6.6,0-10.1c-5.7,0-11,0-16.5,0c0,3.4,0,6.6,0,10.1
			c-3.8,0-7.3,0-11,0C5.8,63,5.8,52.3,5.8,41.3z M17.1,41.4c0,5.4,0,10.5,0,15.8c5.3,0,10.4,0,15.7,0c0-5.3,0-10.4,0-15.8
			C27.6,41.4,22.5,41.4,17.1,41.4z"/>
		<path class="st4" d="M17.1,41.4c5.3,0,10.4,0,15.7,0c0,5.3,0,10.5,0,15.8c-5.3,0-10.4,0-15.7,0C17.1,51.9,17.1,46.8,17.1,41.4z"/>
	</g>
</g>
</svg>
