<?xml version="1.0" encoding="utf-8"?>
<!-- Generator: Adobe Illustrator 24.1.0, SVG Export Plug-In . SVG Version: 6.00 Build 0)  -->
<svg version="1.1" id="Layer_1" xmlns="http://www.w3.org/2000/svg" xmlns:xlink="http://www.w3.org/1999/xlink" x="0px" y="0px"
	 viewBox="0 0 300 300" style="enable-background:new 0 0 300 300;" xml:space="preserve">
<style type="text/css">
	.st0{fill-rule:evenodd;clip-rule:evenodd;fill:#0D4184;}
	.st1{fill-rule:evenodd;clip-rule:evenodd;fill:#FFFFFF;}
	.st2{fill-rule:evenodd;clip-rule:evenodd;fill:#176CC9;}
</style>
<g>
	<polygon class="st0" points="50,26.3 250,26.3 250,219.8 197.8,272.5 50,272.5 	"/>
	<path class="st1" d="M164.3,193.8l-8.1-19.3h-37.6l-8.1,19.3H89.5l38.2-89.2H147l38.5,89.2H164.3z M181.8,150v-16.7h-16.4v-11.6
		h16.4v-17h12.8v16.9h16.4v11.6h-16.4v16.7L181.8,150L181.8,150z M137.4,131.2L126,157.4h22.3L137.4,131.2z"/>
	<path class="st2" d="M197.8,272.5l52.2-52.8h-42.4c-5.4,0-9.9,4.5-9.9,9.9V272.5L197.8,272.5z"/>
</g>
</svg>
