<?xml version="1.0" encoding="utf-8"?>
<!-- Generator: Adobe Illustrator 24.1.0, SVG Export Plug-In . SVG Version: 6.00 Build 0)  -->
<svg version="1.1" id="Layer_1" xmlns="http://www.w3.org/2000/svg" xmlns:xlink="http://www.w3.org/1999/xlink" x="0px" y="0px"
	 viewBox="0 0 1024 1024" style="enable-background:new 0 0 1024 1024;" xml:space="preserve">
<style type="text/css">
	.st0{fill:#FFFFFF;stroke:#FFFFFF;stroke-miterlimit:10;}
	.st1{fill:#0D4184;}
</style>
<ellipse class="st0" cx="511.1" cy="519.4" rx="444.3" ry="441.8"/>
<path class="st1" d="M512,62.8c-248.6,0-450,201.4-450,450c0,198.8,128.9,367.5,307.8,427c22.5,4.1,30.7-9.8,30.7-21.6
	c0-10.7-0.4-46.2-0.6-83.8c-125.2,27.2-151.6-53.1-151.6-53.1c-20.5-51.9-49.9-65.8-49.9-65.8c-40.9-27.9,3.1-27.3,3.1-27.3
	c45.2,3.2,69,46.4,69,46.4c40.2,68.7,105.4,48.9,131,37.4c4.1-29,15.7-48.9,28.6-60.1c-99.9-11.3-205-50-205-222.5
	c0-49.1,17.6-89.3,46.3-120.8c-4.6-11.4-20-57.2,4.5-119.2c0,0,37.7-12.1,123.8,46.1c35.9-10,74.4-14.9,112.6-15.1
	c38.2,0.2,76.7,5.2,112.7,15.2c85.9-58.3,123.7-46.1,123.7-46.1c24.6,62,9.1,107.8,4.5,119.1c28.8,31.5,46.2,71.6,46.2,120.8
	c0,172.9-105.3,210.9-205.5,222.1c16.2,14,30.6,41.3,30.6,83.3c0,60.1-0.6,108.6-0.6,123.5c0,12,8.2,26,30.9,21.6
	C833.2,880.2,962,711.6,962,512.8C962,264.3,760.6,62.8,512,62.8z"/>
</svg>
