<svg width="36" height="36" viewBox="0 0 36 36" fill="none" xmlns="http://www.w3.org/2000/svg">
<path d="M9.65182 28.1786C9.53277 28.3125 9.38396 28.2902 9.20539 28.1116C9.01194 27.9479 8.98218 27.8066 9.11611 27.6875C9.23515 27.5536 9.38396 27.5759 9.56253 27.7545C9.74111 27.9182 9.77087 28.0595 9.65182 28.1786ZM8.71432 26.817C8.84825 26.9955 8.84825 27.1369 8.71432 27.2411C8.59527 27.3304 8.46878 27.2783 8.33486 27.0848C8.20093 26.8914 8.20093 26.7574 8.33486 26.683C8.46878 26.5789 8.59527 26.6235 8.71432 26.817ZM7.35271 25.4777C7.27831 25.5818 7.18158 25.5967 7.06253 25.5223C6.91372 25.4479 6.86164 25.3586 6.90628 25.2545C6.95093 25.1801 7.04765 25.1652 7.19646 25.2098C7.34527 25.2842 7.39736 25.3735 7.35271 25.4777ZM8.04468 26.2366C7.95539 26.3408 7.83634 26.3185 7.68753 26.1696C7.55361 26.006 7.53872 25.8869 7.64289 25.8125C7.73218 25.7232 7.85122 25.7455 8.00003 25.8795C8.13396 26.0432 8.14884 26.1622 8.04468 26.2366ZM10.9241 28.7366C10.8646 28.9152 10.7232 28.9598 10.5 28.8705C10.2471 28.811 10.1503 28.6994 10.2099 28.5357C10.2694 28.372 10.4107 28.3199 10.634 28.3795C10.8721 28.4539 10.9688 28.5729 10.9241 28.7366ZM12.3304 28.8482C12.3304 29.0119 12.2113 29.0938 11.9732 29.0938C11.7203 29.1235 11.5938 29.0417 11.5938 28.8482C11.5938 28.6845 11.7128 28.6027 11.9509 28.6027C12.2039 28.5729 12.3304 28.6548 12.3304 28.8482ZM13.625 28.625C13.6548 28.7738 13.5506 28.878 13.3125 28.9375C13.0744 28.997 12.9405 28.9375 12.9107 28.7589C12.881 28.5804 12.9852 28.4688 13.2232 28.4241C13.4613 28.3943 13.5953 28.4613 13.625 28.625ZM35.1429 7.28572V28.7143C35.1429 30.4851 34.5142 31.9993 33.2567 33.2567C31.9993 34.5141 30.4852 35.1429 28.7143 35.1429H23.7143C23.4762 35.1429 23.2939 35.1354 23.1674 35.1205C23.041 35.1057 22.8959 35.0685 22.7322 35.0089C22.5685 34.9494 22.4494 34.8415 22.375 34.6853C22.3006 34.529 22.2634 34.3244 22.2634 34.0714V28.7366C22.2634 27.2932 21.8765 26.2366 21.1027 25.567C21.9509 25.4777 22.7136 25.3438 23.3907 25.1652C24.0677 24.9866 24.7671 24.6964 25.4889 24.2946C26.2106 23.8929 26.8133 23.3981 27.2969 22.8103C27.7805 22.2225 28.1749 21.4412 28.4799 20.4665C28.785 19.4918 28.9375 18.372 28.9375 17.1071C28.9375 15.3066 28.3497 13.7738 27.1741 12.5089C27.7247 11.1548 27.6652 9.63691 26.9956 7.95536C26.5789 7.82143 25.9762 7.90328 25.1875 8.2009C24.3988 8.49852 23.7143 8.8259 23.134 9.18304L22.2857 9.71875C20.9018 9.33185 19.4732 9.1384 18 9.1384C16.5268 9.1384 15.0982 9.33185 13.7143 9.71875C13.4762 9.55506 13.16 9.35417 12.7657 9.11608C12.3713 8.87798 11.75 8.59152 10.9018 8.2567C10.0536 7.92188 9.41372 7.82143 8.98218 7.95536C8.32742 9.63691 8.27533 11.1548 8.82593 12.5089C7.65033 13.7738 7.06253 15.3066 7.06253 17.1071C7.06253 18.372 7.21506 19.4881 7.52012 20.4554C7.82518 21.4226 8.21581 22.2039 8.692 22.7991C9.16819 23.3943 9.76715 23.8929 10.4889 24.2946C11.2106 24.6964 11.91 24.9866 12.5871 25.1652C13.2642 25.3438 14.0268 25.4777 14.875 25.567C14.2798 26.1027 13.9152 26.8691 13.7813 27.8661C13.4688 28.0149 13.134 28.1265 12.7768 28.2009C12.4197 28.2753 11.9956 28.3125 11.5045 28.3125C11.0134 28.3125 10.5261 28.1525 10.0424 27.8326C9.55881 27.5127 9.14587 27.0476 8.80361 26.4375C8.52087 25.9613 8.16 25.5744 7.72102 25.2768C7.28203 24.9792 6.91372 24.8006 6.61611 24.7411L6.16968 24.6741C5.85718 24.6741 5.6414 24.7076 5.52236 24.7746C5.40331 24.8415 5.36611 24.9271 5.41075 25.0313C5.45539 25.1354 5.52236 25.2396 5.61164 25.3438C5.70093 25.4479 5.79765 25.5372 5.90182 25.6116L6.05807 25.7232C6.38545 25.872 6.70911 26.1548 7.02905 26.5714C7.34899 26.9881 7.58337 27.3676 7.73218 27.7098L7.95539 28.2232C8.14884 28.7887 8.47622 29.2463 8.93753 29.596C9.39884 29.9457 9.89736 30.1689 10.4331 30.2656C10.9688 30.3624 11.4859 30.4144 11.9844 30.4219C12.4829 30.4293 12.8959 30.4033 13.2232 30.3438L13.7366 30.2545C13.7366 30.8199 13.7404 31.5863 13.7478 32.5536C13.7552 33.5208 13.759 34.0268 13.759 34.0714C13.759 34.3988 13.6771 34.6481 13.5134 34.8192C13.3497 34.9903 13.186 35.0871 13.0224 35.1094C12.8587 35.1317 12.6131 35.1429 12.2857 35.1429H7.28575C5.51492 35.1429 4.00078 34.5141 2.74334 33.2567C1.4859 31.9993 0.857178 30.4851 0.857178 28.7143V7.28572C0.857178 5.51488 1.4859 4.00075 2.74334 2.74331C4.00078 1.48587 5.51492 0.857147 7.28575 0.857147H28.7143C30.4852 0.857147 31.9993 1.48587 33.2567 2.74331C34.5142 4.00075 35.1429 5.51488 35.1429 7.28572Z" fill="#868686"/>
</svg>
